<svg xmlns="http://www.w3.org/2000/svg" xmlns:xlink="http://www.w3.org/1999/xlink" width="108.914" height="108.914" viewBox="0 0 108.914 108.914">
  <defs>
    <filter id="Trazado_874925" x="0" y="0" width="108.914" height="108.914" filterUnits="userSpaceOnUse">
      <feOffset dy="3" input="SourceAlpha"/>
      <feGaussianBlur stdDeviation="3" result="blur"/>
      <feFlood flood-opacity="0.161"/>
      <feComposite operator="in" in2="blur"/>
      <feComposite in="SourceGraphic"/>
    </filter>
  </defs>
  <g id="Grupo_1108349" data-name="Grupo 1108349" transform="translate(-818.8 -1958.181)">
    <g transform="matrix(1, 0, 0, 1, 818.8, 1958.18)" filter="url(#Trazado_874925)">
      <g id="Trazado_874925-2" data-name="Trazado 874925" transform="translate(9 6)" fill="#9cc8ff" opacity="0.859">
        <path d="M 45.45676803588867 89.41407012939453 C 39.52198028564453 89.41407012939453 33.76551818847656 88.25206756591797 28.34726715087891 85.96034240722656 C 23.11311721801758 83.74648284912109 18.41204261779785 80.57682800292969 14.37464332580566 76.5394287109375 C 10.33724308013916 72.50202941894531 7.167593002319336 67.80095672607422 4.953730583190918 62.56679534912109 C 2.662005424499512 57.14855575561523 1.500005483627319 51.39208221435547 1.500005483627319 45.45729446411133 C 1.500005483627319 39.52198028564453 2.662005424499512 33.76551818847656 4.953730583190918 28.34726905822754 C 7.167593002319336 23.11310577392578 10.33724308013916 18.41203117370605 14.37464332580566 14.37464332580566 C 18.41204261779785 10.33724403381348 23.11311721801758 7.167593955993652 28.34726715087891 4.953731060028076 C 33.76551818847656 2.662006139755249 39.52198028564453 1.500006198883057 45.45676803588867 1.500006198883057 C 51.39155578613281 1.500006198883057 57.14802932739258 2.662006139755249 62.56626892089844 4.953731060028076 C 67.80043029785156 7.167593955993652 72.50150299072266 10.33724403381348 76.53890228271484 14.37464332580566 C 80.57630920410156 18.41203117370605 83.74595642089844 23.11310577392578 85.95981597900391 28.34726905822754 C 88.25154113769531 33.76551818847656 89.41354370117188 39.52198028564453 89.41354370117188 45.45676803588867 C 89.41354370117188 51.39208221435547 88.25154113769531 57.14855575561523 85.95981597900391 62.56679534912109 C 83.74595642089844 67.80095672607422 80.57630920410156 72.50202941894531 76.53890228271484 76.5394287109375 C 72.50150299072266 80.57682800292969 67.80043029785156 83.74648284912109 62.56626892089844 85.96034240722656 C 57.14802932739258 88.25206756591797 51.39155578613281 89.41407012939453 45.45676803588867 89.41407012939453 Z" stroke="none"/>
        <path d="M 45.45676803588867 3 C 39.72381210327148 3 34.1639404296875 4.12213134765625 28.93159484863281 6.335227966308594 C 23.87622833251953 8.473472595214844 19.33542633056641 11.53517150878906 15.43529510498047 15.435302734375 C 11.53517150878906 19.33543395996094 8.473464965820312 23.87622833251953 6.335227966308594 28.93160247802734 C 4.122123718261719 34.16394424438477 3 39.72381591796875 3 45.4572868347168 C 3 51.19024658203125 4.122123718261719 56.75011825561523 6.335227966308594 61.98246002197266 C 8.473464965820312 67.03782653808594 11.53517150878906 71.57862854003906 15.43529510498047 75.478759765625 C 19.33542633056641 79.37889099121094 23.87622833251953 82.44058990478516 28.93159484863281 84.57883453369141 C 34.1639404296875 86.79193115234375 39.72381210327148 87.9140625 45.45676803588867 87.9140625 C 51.18972396850586 87.9140625 56.74959564208984 86.79193115234375 61.98194122314453 84.57883453369141 C 67.03730773925781 82.44058990478516 71.57810974121094 79.37889099121094 75.47824096679688 75.478759765625 C 79.37837219238281 71.57862854003906 82.44007110595703 67.03782653808594 84.57830810546875 61.98246002197266 C 86.79141235351562 56.75011825561523 87.91353607177734 51.19024658203125 87.91353607177734 45.4567756652832 C 87.91353607177734 39.72381591796875 86.79141235351562 34.16394424438477 84.57830810546875 28.93160247802734 C 82.44007110595703 23.87622833251953 79.37837219238281 19.33543395996094 75.47824096679688 15.435302734375 C 71.57810974121094 11.53517150878906 67.03730773925781 8.473472595214844 61.98194122314453 6.335227966308594 C 56.74959564208984 4.12213134765625 51.18972396850586 3 45.45676803588867 3 M 45.45676803588867 0 C 70.56185150146484 0 90.91353607177734 20.35169219970703 90.91353607177734 45.4567756652832 L 90.91353607177734 45.4572868347168 C 90.91353607177734 70.5623779296875 70.56185150146484 90.9140625 45.45676803588867 90.9140625 C 20.3516845703125 90.9140625 0 70.5623779296875 0 45.4572868347168 L 0 45.4567756652832 C 0 20.35169219970703 20.3516845703125 0 45.45676803588867 0 Z" stroke="none" fill="#fff"/>
      </g>
    </g>
    <g id="comment_1655401" transform="translate(848.79 1986.181)">
      <g id="Grupo_1109120" data-name="Grupo 1109120" transform="translate(0.725 0.715)">
        <g id="Grupo_1109117" data-name="Grupo 1109117">
          <path id="Trazado_901117" data-name="Trazado 901117" d="M48.67,44.087H16.657l-9.147,6.1V9.024A1.524,1.524,0,0,1,9.034,7.5H48.67a1.524,1.524,0,0,1,1.524,1.524V42.562A1.524,1.524,0,0,1,48.67,44.087Z" transform="translate(-7.51 -7.5)" fill="#d2f0fc"/>
          <path id="Trazado_901118" data-name="Trazado 901118" d="M11.321,9.024A1.524,1.524,0,0,1,12.846,7.5H9.034A1.524,1.524,0,0,0,7.51,9.024v41.16l3.811-2.541Z" transform="translate(-7.51 -7.5)" fill="#77d3f7"/>
          <path id="Trazado_901119" data-name="Trazado 901119" d="M300.159,333.106c-6.1-5.336-11.433,1.653-9.909,5.336,1.932,4.667,9.909,9.147,9.909,9.147s7.977-4.479,9.909-9.147C311.593,334.759,306.257,327.771,300.159,333.106Z" transform="translate(-263.073 -300.331)" fill="#f569b9"/>
          <g id="Grupo_1109115" data-name="Grupo 1109115" transform="translate(26.914 30.841)">
            <path id="Trazado_901120" data-name="Trazado 901120" d="M293.3,337.358c-.781-1.885.238-4.637,2.236-6.158-3.842.111-6.4,4.575-5.284,7.27,1.932,4.667,9.909,9.147,9.909,9.147s1.006-.565,2.389-1.5C300.6,344.928,294.893,341.207,293.3,337.358Z" transform="translate(-289.987 -331.2)" fill="#f137a2"/>
          </g>
          <g id="Grupo_1109116" data-name="Grupo 1109116" transform="translate(0)">
            <path id="Trazado_901121" data-name="Trazado 901121" d="M48.67,7.5H9.034A1.524,1.524,0,0,0,7.51,9.024v6.1H50.194v-6.1A1.524,1.524,0,0,0,48.67,7.5Z" transform="translate(-7.51 -7.5)" fill="#77d3f7"/>
          </g>
          <path id="Trazado_901122" data-name="Trazado 901122" d="M12.846,7.5H9.034A1.524,1.524,0,0,0,7.51,9.024v6.1h3.811v-6.1A1.524,1.524,0,0,1,12.846,7.5Z" transform="translate(-7.51 -7.5)" fill="#1cb6f2"/>
        </g>
        <g id="Grupo_1109119" data-name="Grupo 1109119" transform="translate(10.671 13.719)">
          <g id="Grupo_1109118" data-name="Grupo 1109118">
            <path id="Trazado_901123" data-name="Trazado 901123" d="M124.083,204.058h-3.049a1.524,1.524,0,0,1-1.524-1.524v-1.524a1.524,1.524,0,0,1,1.524-1.524h3.049Z" transform="translate(-119.51 -194.912)" fill="#f137a2"/>
            <path id="Trazado_901124" data-name="Trazado 901124" d="M121.034,212.628h3.049v2.287h-3.049a1.524,1.524,0,0,1-1.524-1.524v-1.524a1.524,1.524,0,0,1,.05-.381A1.524,1.524,0,0,0,121.034,212.628Z" transform="translate(-119.51 -205.768)" fill="#ee058b"/>
            <path id="Trazado_901125" data-name="Trazado 901125" d="M167.51,156.058l10.671-4.573v13.72l-10.671-4.573Z" transform="translate(-162.937 -151.485)" fill="#f0eced"/>
            <path id="Trazado_901126" data-name="Trazado 901126" d="M178.181,230.345l-10.671-4.573v-2.287l10.671,4.573Z" transform="translate(-162.937 -216.625)" fill="#d2c5c9"/>
            <rect id="Rectángulo_403384" data-name="Rectángulo 403384" width="2.287" height="4.573" transform="translate(2.287 9.147)" fill="#876470"/>
          </g>
        </g>
      </g>
      <g id="Grupo_1109121" data-name="Grupo 1109121" transform="translate(0.01)">
        <path id="Trazado_901127" data-name="Trazado 901127" d="M45.764,31.986a6.2,6.2,0,0,0-1.64-.845V2.239A2.242,2.242,0,0,0,41.885,0H2.249A2.242,2.242,0,0,0,.01,2.239V43.4a.721.721,0,0,0,1.111.595l8.967-5.978H26.962a4.137,4.137,0,0,0,.279,1.083c2,4.84,9.885,9.309,10.219,9.5a.721.721,0,0,0,.7,0c.335-.188,8.216-4.656,10.219-9.5C49.3,36.872,48.128,33.681,45.764,31.986Zm-35.893,4.6a.714.714,0,0,0-.4.12L1.439,42.064V9.051H6.066a.715.715,0,1,0,0-1.429H1.439V2.239a.811.811,0,0,1,.81-.81H41.885a.811.811,0,0,1,.81.81V7.622H9.5a.715.715,0,1,0,0,1.429h33.2v21.8a5.813,5.813,0,0,0-.785,0,7.429,7.429,0,0,0-4.1,1.711,7.429,7.429,0,0,0-4.1-1.711,5.9,5.9,0,0,0-3.854,1.135,7.183,7.183,0,0,0-2.864,4.6H9.871Zm37.188,1.966c-1.591,3.844-7.714,7.678-9.249,8.592-1.535-.915-7.657-4.749-9.249-8.592-.671-1.621.3-4.1,2.128-5.405a4.555,4.555,0,0,1,2.654-.885,6.091,6.091,0,0,1,4,1.766.715.715,0,0,0,.941,0c3.088-2.7,5.492-1.712,6.65-.881C46.756,34.456,47.73,36.931,47.059,38.552Z" transform="translate(-0.01)"/>
        <circle id="Elipse_11553" data-name="Elipse 11553" cx="0.715" cy="0.715" r="0.715" transform="translate(33.538 3.859)"/>
        <circle id="Elipse_11554" data-name="Elipse 11554" cx="0.715" cy="0.715" r="0.715" transform="translate(36.539 3.859)"/>
        <circle id="Elipse_11555" data-name="Elipse 11555" cx="0.715" cy="0.715" r="0.715" transform="translate(39.54 3.859)"/>
        <path id="Trazado_901128" data-name="Trazado 901128" d="M127.969,159.147a.722.722,0,0,0,.715-.715v-13.72a.722.722,0,0,0-1-.657l-10.536,4.516h-2.9a2.242,2.242,0,0,0-2.239,2.239v1.524a2.242,2.242,0,0,0,2.239,2.239h.048v3.859a.715.715,0,0,0,.715.715H117.3a.715.715,0,0,0,.715-.715v-3.49l9.675,4.146A.714.714,0,0,0,127.969,159.147Zm-14.53-6.812V150.81a.811.811,0,0,1,.81-.81h2.334v3.144h-2.334A.811.811,0,0,1,113.439,152.334Zm3.144,5.383h-.857v-3.144h.857Zm10.671-.369-9.242-3.961v-3.631l9.242-3.961Z" transform="translate(-101.339 -130.279)"/>
        <path id="Trazado_901129" data-name="Trazado 901129" d="M336.01,216.7a.715.715,0,0,0,.715.715h1.524a.715.715,0,1,0,0-1.429h-1.524A.715.715,0,0,0,336.01,216.7Z" transform="translate(-303.997 -195.406)"/>
        <path id="Trazado_901130" data-name="Trazado 901130" d="M328.15,178.176a.711.711,0,0,0,.357-.1l1.32-.762a.715.715,0,0,0-.715-1.238l-1.32.762a.715.715,0,0,0,.358,1.333Z" transform="translate(-296.239 -159.217)"/>
        <path id="Trazado_901131" data-name="Trazado 901131" d="M327.792,249.316l1.32.762a.715.715,0,1,0,.715-1.238l-1.32-.762a.715.715,0,1,0-.715,1.238Z" transform="translate(-296.239 -224.355)"/>
      </g>
    </g>
  </g>
</svg>
