<svg xmlns="http://www.w3.org/2000/svg" xmlns:xlink="http://www.w3.org/1999/xlink" width="108.914" height="108.914" viewBox="0 0 108.914 108.914">
  <defs>
    <filter id="Trazado_874925" x="0" y="0" width="108.914" height="108.914" filterUnits="userSpaceOnUse">
      <feOffset dy="3" input="SourceAlpha"/>
      <feGaussianBlur stdDeviation="3" result="blur"/>
      <feFlood flood-opacity="0.161"/>
      <feComposite operator="in" in2="blur"/>
      <feComposite in="SourceGraphic"/>
    </filter>
  </defs>
  <g id="Grupo_1108350" data-name="Grupo 1108350" transform="translate(-818.384 -1958.636)">
    <g transform="matrix(1, 0, 0, 1, 818.38, 1958.64)" filter="url(#Trazado_874925)">
      <g id="Trazado_874925-2" data-name="Trazado 874925" transform="translate(9 6)" fill="#9cc8ff" opacity="0.859">
        <path d="M 45.45676803588867 89.41407012939453 C 39.52198028564453 89.41407012939453 33.76551818847656 88.25206756591797 28.34726715087891 85.96034240722656 C 23.11311721801758 83.74648284912109 18.41204261779785 80.57682800292969 14.37464332580566 76.5394287109375 C 10.33724308013916 72.50202941894531 7.167593002319336 67.80095672607422 4.953730583190918 62.56679534912109 C 2.662005424499512 57.14855575561523 1.500005483627319 51.39208221435547 1.500005483627319 45.45729446411133 C 1.500005483627319 39.52198028564453 2.662005424499512 33.76551818847656 4.953730583190918 28.34726905822754 C 7.167593002319336 23.11310577392578 10.33724308013916 18.41203117370605 14.37464332580566 14.37464332580566 C 18.41204261779785 10.33724403381348 23.11311721801758 7.167593955993652 28.34726715087891 4.953731060028076 C 33.76551818847656 2.662006139755249 39.52198028564453 1.500006198883057 45.45676803588867 1.500006198883057 C 51.39155578613281 1.500006198883057 57.14802932739258 2.662006139755249 62.56626892089844 4.953731060028076 C 67.80043029785156 7.167593955993652 72.50150299072266 10.33724403381348 76.53890228271484 14.37464332580566 C 80.57630920410156 18.41203117370605 83.74595642089844 23.11310577392578 85.95981597900391 28.34726905822754 C 88.25154113769531 33.76551818847656 89.41354370117188 39.52198028564453 89.41354370117188 45.45676803588867 C 89.41354370117188 51.39208221435547 88.25154113769531 57.14855575561523 85.95981597900391 62.56679534912109 C 83.74595642089844 67.80095672607422 80.57630920410156 72.50202941894531 76.53890228271484 76.5394287109375 C 72.50150299072266 80.57682800292969 67.80043029785156 83.74648284912109 62.56626892089844 85.96034240722656 C 57.14802932739258 88.25206756591797 51.39155578613281 89.41407012939453 45.45676803588867 89.41407012939453 Z" stroke="none"/>
        <path d="M 45.45676803588867 3 C 39.72381210327148 3 34.1639404296875 4.12213134765625 28.93159484863281 6.335227966308594 C 23.87622833251953 8.473472595214844 19.33542633056641 11.53517150878906 15.43529510498047 15.435302734375 C 11.53517150878906 19.33543395996094 8.473464965820312 23.87622833251953 6.335227966308594 28.93160247802734 C 4.122123718261719 34.16394424438477 3 39.72381591796875 3 45.4572868347168 C 3 51.19024658203125 4.122123718261719 56.75011825561523 6.335227966308594 61.98246002197266 C 8.473464965820312 67.03782653808594 11.53517150878906 71.57862854003906 15.43529510498047 75.478759765625 C 19.33542633056641 79.37889099121094 23.87622833251953 82.44058990478516 28.93159484863281 84.57883453369141 C 34.1639404296875 86.79193115234375 39.72381210327148 87.9140625 45.45676803588867 87.9140625 C 51.18972396850586 87.9140625 56.74959564208984 86.79193115234375 61.98194122314453 84.57883453369141 C 67.03730773925781 82.44058990478516 71.57810974121094 79.37889099121094 75.47824096679688 75.478759765625 C 79.37837219238281 71.57862854003906 82.44007110595703 67.03782653808594 84.57830810546875 61.98246002197266 C 86.79141235351562 56.75011825561523 87.91353607177734 51.19024658203125 87.91353607177734 45.4567756652832 C 87.91353607177734 39.72381591796875 86.79141235351562 34.16394424438477 84.57830810546875 28.93160247802734 C 82.44007110595703 23.87622833251953 79.37837219238281 19.33543395996094 75.47824096679688 15.435302734375 C 71.57810974121094 11.53517150878906 67.03730773925781 8.473472595214844 61.98194122314453 6.335227966308594 C 56.74959564208984 4.12213134765625 51.18972396850586 3 45.45676803588867 3 M 45.45676803588867 0 C 70.56185150146484 0 90.91353607177734 20.35169219970703 90.91353607177734 45.4567756652832 L 90.91353607177734 45.4572868347168 C 90.91353607177734 70.5623779296875 70.56185150146484 90.9140625 45.45676803588867 90.9140625 C 20.3516845703125 90.9140625 0 70.5623779296875 0 45.4572868347168 L 0 45.4567756652832 C 0 20.35169219970703 20.3516845703125 0 45.45676803588867 0 Z" stroke="none" fill="#fff"/>
      </g>
    </g>
    <g id="time_5216768" transform="translate(845.721 1982.423)">
      <g id="Grupo_1109158" data-name="Grupo 1109158" transform="translate(0.812 0.818)">
        <g id="Grupo_1109153" data-name="Grupo 1109153">
          <g id="Grupo_1109149" data-name="Grupo 1109149">
            <path id="Trazado_901174" data-name="Trazado 901174" d="M315.7,24.248l.153-.8a8.657,8.657,0,0,1,5.3,9.63,2.694,2.694,0,0,0,5.294,1A14.052,14.052,0,0,0,316.879,18.1l.183-.95a2.566,2.566,0,0,0-3.361-2.909l-6.828,2.367a2.566,2.566,0,0,0-.839,4.365L311.5,25.7A2.566,2.566,0,0,0,315.7,24.248Z" transform="translate(-272.983 -13.385)" fill="#bbec6c"/>
            <path id="Trazado_901175" data-name="Trazado 901175" d="M28.166,307.934,22.7,303.2a2.566,2.566,0,0,0-4.2,1.456l-.153.8a8.657,8.657,0,0,1-5.3-9.63,2.694,2.694,0,0,0-5.294-1,14.052,14.052,0,0,0,9.561,15.977l-.183.95a2.566,2.566,0,0,0,3.361,2.909l6.828-2.367A2.566,2.566,0,0,0,28.166,307.934Z" transform="translate(-7.516 -261.821)" fill="#bbec6c"/>
            <path id="Trazado_901176" data-name="Trazado 901176" d="M314.674,313.693l-2.367-6.828a2.566,2.566,0,0,0-4.365-.839l-4.73,5.463a2.566,2.566,0,0,0,1.456,4.2l.8.153a8.658,8.658,0,0,1-9.63,5.3,2.694,2.694,0,1,0-1,5.294,14.052,14.052,0,0,0,15.977-9.561l.95.183A2.566,2.566,0,0,0,314.674,313.693Z" transform="translate(-261.829 -272.975)" fill="#bbec6c"/>
            <path id="Trazado_901177" data-name="Trazado 901177" d="M20.982,28.158l4.73-5.463a2.566,2.566,0,0,0-1.456-4.2l-.8-.153a8.658,8.658,0,0,1,9.63-5.3,2.694,2.694,0,0,0,1-5.294,14.052,14.052,0,0,0-15.977,9.562l-.95-.183a2.566,2.566,0,0,0-2.909,3.361l2.367,6.828A2.566,2.566,0,0,0,20.982,28.158Z" transform="translate(-13.393 -7.508)" fill="#bbec6c"/>
          </g>
          <g id="Grupo_1109150" data-name="Grupo 1109150" transform="translate(32.164 0.712)">
            <path id="Trazado_901178" data-name="Trazado 901178" d="M308.848,21.5a2.566,2.566,0,0,1,.839-4.365l6.65-2.306a2.546,2.546,0,0,0-2.636-.591l-6.828,2.367a2.566,2.566,0,0,0-.839,4.365L311.5,25.7a2.547,2.547,0,0,0,2.687.42Z" transform="translate(-305.147 -14.096)" fill="#a2e62e"/>
          </g>
          <g id="Grupo_1109151" data-name="Grupo 1109151" transform="translate(0 30.813)">
            <path id="Trazado_901179" data-name="Trazado 901179" d="M19.952,312.287l.183-.95a14.052,14.052,0,0,1-9.562-15.977,2.692,2.692,0,0,1,1.663-2.009,2.693,2.693,0,0,0-4.476,1.479,14.052,14.052,0,0,0,9.561,15.977l-.183.95a2.566,2.566,0,0,0,3.361,2.909l.177-.061A2.539,2.539,0,0,1,19.952,312.287Z" transform="translate(-7.516 -292.635)" fill="#a2e62e"/>
          </g>
          <g id="Grupo_1109152" data-name="Grupo 1109152" transform="translate(0.712 0)">
            <path id="Trazado_901180" data-name="Trazado 901180" d="M295.5,323.82a2.694,2.694,0,0,1,3.146-2.149,8.658,8.658,0,0,0,9.63-5.3l-.8-.153a2.566,2.566,0,0,1-1.456-4.2l4.73-5.463a2.557,2.557,0,0,1,.928-.682,2.57,2.57,0,0,0-3.742.152l-4.73,5.463a2.566,2.566,0,0,0,1.456,4.2l.8.153a8.658,8.658,0,0,1-9.63,5.3,2.694,2.694,0,1,0-1,5.294,14.105,14.105,0,0,0,1.991.23A2.694,2.694,0,0,1,295.5,323.82Z" transform="translate(-262.542 -272.978)" fill="#a2e62e"/>
            <path id="Trazado_901181" data-name="Trazado 901181" d="M19.43,27.849l-2.367-6.828a2.566,2.566,0,0,1,2.909-3.361l.95.183A14.062,14.062,0,0,1,34.908,8.051a2.687,2.687,0,0,0-.822-.3,14.052,14.052,0,0,0-15.977,9.562l-.95-.183a2.566,2.566,0,0,0-2.909,3.361l2.367,6.828a2.569,2.569,0,0,0,3.436,1.521,2.551,2.551,0,0,1-.623-.991Z" transform="translate(-14.105 -7.508)" fill="#a2e62e"/>
          </g>
        </g>
        <g id="Grupo_1109157" data-name="Grupo 1109157" transform="translate(11.063 11.065)">
          <path id="Trazado_901182" data-name="Trazado 901182" d="M125.678,109.895a15.786,15.786,0,1,1-15.787,15.787,15.788,15.788,0,0,1,15.787-15.787Z" transform="translate(-109.891 -109.895)" fill="#fe646f"/>
          <path id="Trazado_901183" data-name="Trazado 901183" d="M128.082,141.29a15.786,15.786,0,1,1,0-31.209,15.788,15.788,0,0,0,0,31.209Z" transform="translate(-109.892 -109.899)" fill="#fd4755"/>
          <path id="Trazado_901184" data-name="Trazado 901184" d="M153.688,141.294a12.393,12.393,0,1,1-12.394,12.394A12.394,12.394,0,0,1,153.688,141.294Z" transform="translate(-137.9 -137.901)" fill="#c8effe"/>
          <path id="Trazado_901185" data-name="Trazado 901185" d="M155.621,165.929a12.52,12.52,0,0,1-1.933.15,12.392,12.392,0,1,1,0-24.785,12.526,12.526,0,0,1,1.933.15,12.394,12.394,0,0,0,0,24.485Z" transform="translate(-137.9 -137.901)" fill="#99e6fc"/>
          <path id="Trazado_901186" data-name="Trazado 901186" d="M210.528,207.56l-3.592-3.592a2.094,2.094,0,1,0-2.961,2.961l3.592,3.592a2.094,2.094,0,0,0,2.961,0" transform="translate(-193.26 -193.254)" fill="#685e68"/>
          <path id="Trazado_901187" data-name="Trazado 901187" d="M242.285,217.714a2.094,2.094,0,0,0-2.961,0l-2.107,2.107a2.094,2.094,0,0,0,2.961,2.961l2.107-2.107A2.094,2.094,0,0,0,242.285,217.714Z" transform="translate(-222.91 -205.516)" fill="#7a6d79"/>
          <g id="Grupo_1109156" data-name="Grupo 1109156" transform="translate(5.683 5.681)">
            <g id="Grupo_1109154" data-name="Grupo 1109154" transform="translate(8.667)">
              <circle id="Elipse_11561" data-name="Elipse 11561" cx="1.437" cy="1.437" r="1.437" fill="#fe646f"/>
              <circle id="Elipse_11562" data-name="Elipse 11562" cx="1.437" cy="1.437" r="1.437" transform="translate(0 17.334)" fill="#fe646f"/>
            </g>
            <g id="Grupo_1109155" data-name="Grupo 1109155" transform="translate(0 8.667)">
              <circle id="Elipse_11563" data-name="Elipse 11563" cx="1.437" cy="1.437" r="1.437" transform="translate(17.334)" fill="#fe646f"/>
              <circle id="Elipse_11564" data-name="Elipse 11564" cx="1.437" cy="1.437" r="1.437" fill="#fe646f"/>
            </g>
          </g>
        </g>
      </g>
      <g id="Grupo_1109159" data-name="Grupo 1109159" transform="translate(0 0.008)">
        <path id="Trazado_901188" data-name="Trazado 901188" d="M311.11,10.867l.05-.258a3.377,3.377,0,0,0-4.422-3.828l-6.828,2.367a3.377,3.377,0,0,0-1.1,5.743l5.463,4.73a3.377,3.377,0,0,0,5.476-1.69,7.85,7.85,0,0,1,3.908,8.3,3.5,3.5,0,1,0,6.888,1.3,14.847,14.847,0,0,0-9.429-16.665Zm7.836,16.365a1.883,1.883,0,1,1-3.7-.7A9.47,9.47,0,0,0,309.452,16a.811.811,0,0,0-1.1.6l-.153.8a1.756,1.756,0,0,1-2.874,1l-5.463-4.73a1.756,1.756,0,0,1,.574-2.986l6.828-2.367a1.756,1.756,0,0,1,2.3,1.99l-.183.95a.811.811,0,0,0,.552.926A13.224,13.224,0,0,1,318.946,27.233Z" transform="translate(-265.472 -5.879)"/>
        <path id="Trazado_901189" data-name="Trazado 901189" d="M21.993,300.632,16.53,295.9a3.377,3.377,0,0,0-5.475,1.69,7.848,7.848,0,0,1-3.907-8.306,3.5,3.5,0,0,0-6.888-1.3,14.744,14.744,0,0,0,2.26,11,.81.81,0,1,0,1.347-.9,13.132,13.132,0,0,1-2.013-9.8,1.884,1.884,0,0,1,3.7.7,9.468,9.468,0,0,0,5.792,10.533.811.811,0,0,0,1.1-.6l.153-.8a1.755,1.755,0,0,1,2.873-1l5.463,4.73a1.756,1.756,0,0,1-.574,2.986L13.53,307.21a1.756,1.756,0,0,1-2.3-1.99l.183-.95a.811.811,0,0,0-.552-.926A13.055,13.055,0,0,1,5.84,300.41a.811.811,0,0,0-1.106,1.185,14.653,14.653,0,0,0,4.955,3.061l-.05.258a3.384,3.384,0,0,0,3.3,4.018,3.412,3.412,0,0,0,1.119-.19l6.828-2.367a3.377,3.377,0,0,0,1.1-5.743Z" transform="translate(0 -254.321)"/>
        <path id="Trazado_901190" data-name="Trazado 901190" d="M306.38,299.9a3.377,3.377,0,0,0-5.743-1.1l-4.73,5.463a3.377,3.377,0,0,0,1.69,5.476,7.85,7.85,0,0,1-8.3,3.907,3.5,3.5,0,1,0-1.3,6.888A14.832,14.832,0,0,0,304.66,311.1l.258.05a3.377,3.377,0,0,0,3.828-4.422Zm.5,9.083a1.738,1.738,0,0,1-1.659.575l-.95-.183a.81.81,0,0,0-.926.552,13.223,13.223,0,0,1-15.054,9.009,1.884,1.884,0,0,1,.345-3.735,1.9,1.9,0,0,1,.353.033,9.455,9.455,0,0,0,10.533-5.793.811.811,0,0,0-.6-1.1l-.8-.153a1.756,1.756,0,0,1-1-2.874l4.73-5.463a1.756,1.756,0,0,1,2.987.574l2.367,6.828A1.738,1.738,0,0,1,306.884,308.984Z" transform="translate(-254.324 -265.466)"/>
        <path id="Trazado_901191" data-name="Trazado 901191" d="M9.154,20.895a3.342,3.342,0,0,0,2.553,2.21,3.458,3.458,0,0,0,.653.063A3.338,3.338,0,0,0,14.9,22l4.73-5.463a3.377,3.377,0,0,0-1.69-5.476,7.85,7.85,0,0,1,8.3-3.907A3.5,3.5,0,1,0,27.54.265,14.847,14.847,0,0,0,10.874,9.695l-.258-.05a3.377,3.377,0,0,0-3.828,4.422Zm-.5-9.083A1.735,1.735,0,0,1,9.97,11.2a1.794,1.794,0,0,1,.34.033l.95.183a.81.81,0,0,0,.926-.552A13.224,13.224,0,0,1,27.239,1.858a1.883,1.883,0,1,1-.7,3.7A9.469,9.469,0,0,0,16.01,11.353a.811.811,0,0,0,.6,1.1l.8.153a1.756,1.756,0,0,1,1,2.874l-4.73,5.463a1.756,1.756,0,0,1-2.986-.574L8.319,13.536a1.738,1.738,0,0,1,.332-1.724Z" transform="translate(-5.884 -0.008)"/>
        <path id="Trazado_901192" data-name="Trazado 901192" d="M137.715,137.71a13.2,13.2,0,1,0,18.674,0A13.218,13.218,0,0,0,137.715,137.71Zm17.528,17.528a11.578,11.578,0,1,1,0-16.381A11.6,11.6,0,0,1,155.242,155.237Z" transform="translate(-119.389 -119.385)"/>
        <path id="Trazado_901193" data-name="Trazado 901193" d="M135.5,120.695a.81.81,0,1,0-1.613-.164,14.961,14.961,0,1,1,0-3.073.81.81,0,1,0,1.613-.164,16.6,16.6,0,1,0,0,3.4Z" transform="translate(-91.325 -91.331)"/>
        <path id="Trazado_901194" data-name="Trazado 901194" d="M204.463,197.343a2.885,2.885,0,0,0-2.054.851l-.053.053-1.538-1.538a2.9,2.9,0,1,0-4.107,4.107L200.3,204.4l0,0a2.9,2.9,0,0,0,4.108,0l2.107-2.107a2.9,2.9,0,0,0-2.054-4.959Zm-6.983,1.419a1.283,1.283,0,0,1,2.191-.907l1.538,1.538-.907.907a2.886,2.886,0,0,0-.7,1.12l-1.751-1.751A1.272,1.272,0,0,1,197.48,198.762Zm7.89,2.393-2.107,2.107a1.284,1.284,0,0,1-1.815,0h0l0,0a1.285,1.285,0,0,1,0-1.813l2.107-2.107a1.283,1.283,0,1,1,1.815,1.815Z" transform="translate(-174.693 -174.693)"/>
        <path id="Trazado_901195" data-name="Trazado 901195" d="M237.428,159.464a2.248,2.248,0,1,0-2.248-2.248A2.25,2.25,0,0,0,237.428,159.464Zm0-2.875a.627.627,0,1,1-.627.627A.628.628,0,0,1,237.428,156.589Z" transform="translate(-209.765 -138.222)"/>
        <path id="Trazado_901196" data-name="Trazado 901196" d="M237.428,315.371a2.248,2.248,0,1,0,2.248,2.248A2.25,2.25,0,0,0,237.428,315.371Zm0,2.875a.627.627,0,1,1,.627-.627A.628.628,0,0,1,237.428,318.246Z" transform="translate(-209.765 -281.291)"/>
        <path id="Trazado_901197" data-name="Trazado 901197" d="M315.381,237.418a2.248,2.248,0,1,0,2.248-2.248A2.251,2.251,0,0,0,315.381,237.418Zm2.248-.627a.627.627,0,1,1-.627.627A.628.628,0,0,1,317.629,236.791Z" transform="translate(-281.299 -209.757)"/>
        <path id="Trazado_901198" data-name="Trazado 901198" d="M157.226,235.17a2.248,2.248,0,1,0,2.248,2.248,2.25,2.25,0,0,0-2.248-2.248Zm0,2.875a.627.627,0,1,1,.627-.627A.628.628,0,0,1,157.226,238.045Z" transform="translate(-138.23 -209.757)"/>
      </g>
    </g>
  </g>
</svg>
