<svg xmlns="http://www.w3.org/2000/svg" xmlns:xlink="http://www.w3.org/1999/xlink" width="108.914" height="108.914" viewBox="0 0 108.914 108.914">
  <defs>
    <filter id="Trazado_874925" x="0" y="0" width="108.914" height="108.914" filterUnits="userSpaceOnUse">
      <feOffset dy="3" input="SourceAlpha"/>
      <feGaussianBlur stdDeviation="3" result="blur"/>
      <feFlood flood-opacity="0.161"/>
      <feComposite operator="in" in2="blur"/>
      <feComposite in="SourceGraphic"/>
    </filter>
  </defs>
  <g id="Grupo_1108344" data-name="Grupo 1108344" transform="translate(-818.8 -1958.429)">
    <g transform="matrix(1, 0, 0, 1, 818.8, 1958.43)" filter="url(#Trazado_874925)">
      <g id="Trazado_874925-2" data-name="Trazado 874925" transform="translate(9 6)" fill="#9cc8ff" opacity="0.859">
        <path d="M 45.45676803588867 89.41407012939453 C 39.52198028564453 89.41407012939453 33.76551818847656 88.25206756591797 28.34726715087891 85.96034240722656 C 23.11311721801758 83.74648284912109 18.41204261779785 80.57682800292969 14.37464332580566 76.5394287109375 C 10.33724308013916 72.50202941894531 7.167593002319336 67.80095672607422 4.953730583190918 62.56679534912109 C 2.662005424499512 57.14855575561523 1.500005483627319 51.39208221435547 1.500005483627319 45.45729446411133 C 1.500005483627319 39.52198028564453 2.662005424499512 33.76551818847656 4.953730583190918 28.34726905822754 C 7.167593002319336 23.11310577392578 10.33724308013916 18.41203117370605 14.37464332580566 14.37464332580566 C 18.41204261779785 10.33724403381348 23.11311721801758 7.167593955993652 28.34726715087891 4.953731060028076 C 33.76551818847656 2.662006139755249 39.52198028564453 1.500006198883057 45.45676803588867 1.500006198883057 C 51.39155578613281 1.500006198883057 57.14802932739258 2.662006139755249 62.56626892089844 4.953731060028076 C 67.80043029785156 7.167593955993652 72.50150299072266 10.33724403381348 76.53890228271484 14.37464332580566 C 80.57630920410156 18.41203117370605 83.74595642089844 23.11310577392578 85.95981597900391 28.34726905822754 C 88.25154113769531 33.76551818847656 89.41354370117188 39.52198028564453 89.41354370117188 45.45676803588867 C 89.41354370117188 51.39208221435547 88.25154113769531 57.14855575561523 85.95981597900391 62.56679534912109 C 83.74595642089844 67.80095672607422 80.57630920410156 72.50202941894531 76.53890228271484 76.5394287109375 C 72.50150299072266 80.57682800292969 67.80043029785156 83.74648284912109 62.56626892089844 85.96034240722656 C 57.14802932739258 88.25206756591797 51.39155578613281 89.41407012939453 45.45676803588867 89.41407012939453 Z" stroke="none"/>
        <path d="M 45.45676803588867 3 C 39.72381210327148 3 34.1639404296875 4.12213134765625 28.93159484863281 6.335227966308594 C 23.87622833251953 8.473472595214844 19.33542633056641 11.53517150878906 15.43529510498047 15.435302734375 C 11.53517150878906 19.33543395996094 8.473464965820312 23.87622833251953 6.335227966308594 28.93160247802734 C 4.122123718261719 34.16394424438477 3 39.72381591796875 3 45.4572868347168 C 3 51.19024658203125 4.122123718261719 56.75011825561523 6.335227966308594 61.98246002197266 C 8.473464965820312 67.03782653808594 11.53517150878906 71.57862854003906 15.43529510498047 75.478759765625 C 19.33542633056641 79.37889099121094 23.87622833251953 82.44058990478516 28.93159484863281 84.57883453369141 C 34.1639404296875 86.79193115234375 39.72381210327148 87.9140625 45.45676803588867 87.9140625 C 51.18972396850586 87.9140625 56.74959564208984 86.79193115234375 61.98194122314453 84.57883453369141 C 67.03730773925781 82.44058990478516 71.57810974121094 79.37889099121094 75.47824096679688 75.478759765625 C 79.37837219238281 71.57862854003906 82.44007110595703 67.03782653808594 84.57830810546875 61.98246002197266 C 86.79141235351562 56.75011825561523 87.91353607177734 51.19024658203125 87.91353607177734 45.4567756652832 C 87.91353607177734 39.72381591796875 86.79141235351562 34.16394424438477 84.57830810546875 28.93160247802734 C 82.44007110595703 23.87622833251953 79.37837219238281 19.33543395996094 75.47824096679688 15.435302734375 C 71.57810974121094 11.53517150878906 67.03730773925781 8.473472595214844 61.98194122314453 6.335227966308594 C 56.74959564208984 4.12213134765625 51.18972396850586 3 45.45676803588867 3 M 45.45676803588867 0 C 70.56185150146484 0 90.91353607177734 20.35169219970703 90.91353607177734 45.4567756652832 L 90.91353607177734 45.4572868347168 C 90.91353607177734 70.5623779296875 70.56185150146484 90.9140625 45.45676803588867 90.9140625 C 20.3516845703125 90.9140625 0 70.5623779296875 0 45.4572868347168 L 0 45.4567756652832 C 0 20.35169219970703 20.3516845703125 0 45.45676803588867 0 Z" stroke="none" fill="#fff"/>
      </g>
    </g>
    <g id="lapiz-y-regla" transform="translate(845.039 1981.662)">
      <g id="Grupo_1109106" data-name="Grupo 1109106" transform="translate(-0.001 0.005)">
        <g id="Grupo_1109098" data-name="Grupo 1109098" transform="translate(32.847 1.102)">
          <path id="Trazado_901085" data-name="Trazado 901085" d="M309.138,11.561a5.313,5.313,0,0,1,0,7.514L305.6,22.611,298.088,15.1l3.536-3.536a5.313,5.313,0,0,1,7.514,0Z" transform="translate(-298.088 -10.005)" fill="#ff5d5d"/>
        </g>
        <g id="Grupo_1109103" data-name="Grupo 1109103" transform="translate(1.102 11.69)">
          <g id="Grupo_1109099" data-name="Grupo 1109099" transform="translate(0 27.665)">
            <path id="Trazado_901086" data-name="Trazado 901086" d="M16.1,361.954l-4.8-4.8-1.3,6.1Z" transform="translate(-10 -357.151)" fill="#6eb4c7"/>
          </g>
          <g id="Grupo_1109100" data-name="Grupo 1109100" transform="translate(1.296 22.182)">
            <path id="Trazado_901087" data-name="Trazado 901087" d="M24.529,307.394l-1.166,1.167a4.172,4.172,0,0,0-1.131,2.083l-.474,2.233,4.8,4.8,2.233-.474a4.172,4.172,0,0,0,2.083-1.131l1.166-1.166" transform="translate(-21.757 -307.394)" fill="#fff"/>
          </g>
          <g id="Grupo_1109101" data-name="Grupo 1109101" transform="translate(8.392 3.757)">
            <path id="Trazado_901088" data-name="Trazado 901088" d="M111.53,143.94l-3.757-3.757L86.2,161.758a3.879,3.879,0,0,0,3.15,4.363Z" transform="translate(-86.159 -140.183)" fill="#fee77b"/>
          </g>
          <g id="Grupo_1109102" data-name="Grupo 1109102" transform="translate(4.067)">
            <path id="Trazado_901089" data-name="Trazado 901089" d="M72.85,109.846l-3.757-3.757L46.911,128.271a3.879,3.879,0,0,0,4.363,3.15Z" transform="translate(-46.911 -106.089)" fill="#ffc857"/>
          </g>
        </g>
        <path id="Trazado_901090" data-name="Trazado 901090" d="M0,0H10.626V3.886H0Z" transform="translate(34.866 19.207) rotate(-135)" fill="#6eb4c7"/>
        <g id="Grupo_1109105" data-name="Grupo 1109105" transform="translate(0 0)">
          <g id="Grupo_1109104" data-name="Grupo 1109104" transform="translate(30.095 6.197)">
            <path id="Trazado_901091" data-name="Trazado 901091" d="M0,0H3.886V10.626H0Z" transform="translate(0 2.747) rotate(-45)" fill="#b8ecff"/>
          </g>
          <path id="Trazado_901092" data-name="Trazado 901092" d="M44.675,1.884a6.415,6.415,0,0,0-9.072,0L3.223,34.264A5.263,5.263,0,0,0,1.793,36.9L.023,45.228A1.1,1.1,0,0,0,1.33,46.535l8.332-1.77a5.262,5.262,0,0,0,2.633-1.429l32.38-32.38a6.422,6.422,0,0,0,0-9.072ZM32.846,7.757,38.8,13.713,37.612,14.9,31.657,8.947Zm-5.5,5.5,2.2,2.2L9.037,35.963A2.781,2.781,0,0,1,6.4,34.2ZM3.053,41.574l1.932,1.932-2.453.521ZM9.2,42.61l-1.648.35L3.6,39l.35-1.648a3.062,3.062,0,0,1,.818-1.518,5,5,0,0,0,.7.872,4.937,4.937,0,0,0,2.957,1.429A4.937,4.937,0,0,0,9.85,41.095a5,5,0,0,0,.872.7A3.062,3.062,0,0,1,9.2,42.61Zm3.152-2.451A2.781,2.781,0,0,1,10.6,37.522L31.107,17.01l2.2,2.2ZM34.864,17.65l-5.955-5.955L30.1,10.505l5.955,5.955ZM43.117,9.4,40.36,12.154,34.4,6.2l2.757-2.757A4.211,4.211,0,0,1,43.117,9.4Z" transform="translate(0.001 -0.005)"/>
        </g>
      </g>
      <g id="Grupo_1109108" data-name="Grupo 1109108" transform="translate(8.012 8.018)">
        <path id="Trazado_901093" data-name="Trazado 901093" d="M128.9,99.117V84.426a1.721,1.721,0,0,0-2.939-1.217L83.2,125.966a1.721,1.721,0,0,0,1.217,2.939h42.757a1.721,1.721,0,0,0,1.721-1.721V111.238m-7.713,9.954h-22.3l22.3-22.3Z" transform="translate(-81.596 -81.601)" fill="#ec9271"/>
        <g id="Grupo_1109107" data-name="Grupo 1109107">
          <path id="Trazado_901094" data-name="Trazado 901094" d="M120.019,101.254a1.1,1.1,0,0,0-1.1,1.1V118.3a.62.62,0,0,1-.619.62H75.54a.62.62,0,0,1-.438-1.058l3.9-3.9,1.573,1.573a1.1,1.1,0,0,0,1.558-1.558l-1.572-1.573,5.122-5.122,1.572,1.572a1.1,1.1,0,1,0,1.558-1.558l-1.572-1.572,5.122-5.122,1.572,1.572a1.1,1.1,0,1,0,1.558-1.558L93.92,99.046l5.122-5.122,1.572,1.572a1.1,1.1,0,0,0,1.558-1.558L100.6,92.366l5.122-5.122,1.572,1.572a1.1,1.1,0,0,0,1.558-1.558l-1.573-1.572,5.122-5.122,1.572,1.572a1.1,1.1,0,0,0,1.558-1.558l-1.572-1.573,3.9-3.9a.62.62,0,0,1,1.058.438v14.69a1.1,1.1,0,0,0,2.2,0V75.545a2.823,2.823,0,0,0-4.82-2L73.544,116.306a2.823,2.823,0,0,0,2,4.82H118.3a2.827,2.827,0,0,0,2.823-2.823V102.356A1.1,1.1,0,0,0,120.019,101.254Z" transform="translate(-72.715 -72.72)"/>
          <path id="Trazado_901095" data-name="Trazado 901095" d="M493.107,277.005h0a1.1,1.1,0,1,0,1.1,1.1A1.1,1.1,0,0,0,493.106,277.005Z" transform="translate(-445.803 -254.495)"/>
          <path id="Trazado_901096" data-name="Trazado 901096" d="M242.251,219.957l-22.3,22.3a1.1,1.1,0,0,0,.779,1.881h22.3a1.1,1.1,0,0,0,1.1-1.1v-22.3a1.1,1.1,0,0,0-1.881-.779Zm-.323,21.977H223.391L241.928,223.4Z" transform="translate(-203.44 -203.445)"/>
        </g>
      </g>
    </g>
  </g>
</svg>
