<svg xmlns="http://www.w3.org/2000/svg" xmlns:xlink="http://www.w3.org/1999/xlink" width="108.914" height="108.914" viewBox="0 0 108.914 108.914">
  <defs>
    <filter id="Trazado_874925" x="0" y="0" width="108.914" height="108.914" filterUnits="userSpaceOnUse">
      <feOffset dy="3" input="SourceAlpha"/>
      <feGaussianBlur stdDeviation="3" result="blur"/>
      <feFlood flood-opacity="0.161"/>
      <feComposite operator="in" in2="blur"/>
      <feComposite in="SourceGraphic"/>
    </filter>
  </defs>
  <g id="Grupo_1108273" data-name="Grupo 1108273" transform="translate(9 6)">
    <g transform="matrix(1, 0, 0, 1, -9, -6)" filter="url(#Trazado_874925)">
      <g id="Trazado_874925-2" data-name="Trazado 874925" transform="translate(9 6)" fill="#de93ea" opacity="0.859">
        <path d="M 45.45676803588867 89.41407012939453 C 39.52198028564453 89.41407012939453 33.76551818847656 88.25206756591797 28.34726715087891 85.96034240722656 C 23.11311721801758 83.74648284912109 18.41204261779785 80.57682800292969 14.37464332580566 76.5394287109375 C 10.33724308013916 72.50202941894531 7.167593002319336 67.80095672607422 4.953730583190918 62.56679534912109 C 2.662005424499512 57.14855575561523 1.500005483627319 51.39208221435547 1.500005483627319 45.45729446411133 C 1.500005483627319 39.52198028564453 2.662005424499512 33.76551818847656 4.953730583190918 28.34726905822754 C 7.167593002319336 23.11310577392578 10.33724308013916 18.41203117370605 14.37464332580566 14.37464332580566 C 18.41204261779785 10.33724403381348 23.11311721801758 7.167593955993652 28.34726715087891 4.953731060028076 C 33.76551818847656 2.662006139755249 39.52198028564453 1.500006198883057 45.45676803588867 1.500006198883057 C 51.39155578613281 1.500006198883057 57.14802932739258 2.662006139755249 62.56626892089844 4.953731060028076 C 67.80043029785156 7.167593955993652 72.50150299072266 10.33724403381348 76.53890228271484 14.37464332580566 C 80.57630920410156 18.41203117370605 83.74595642089844 23.11310577392578 85.95981597900391 28.34726905822754 C 88.25154113769531 33.76551818847656 89.41354370117188 39.52198028564453 89.41354370117188 45.45676803588867 C 89.41354370117188 51.39208221435547 88.25154113769531 57.14855575561523 85.95981597900391 62.56679534912109 C 83.74595642089844 67.80095672607422 80.57630920410156 72.50202941894531 76.53890228271484 76.5394287109375 C 72.50150299072266 80.57682800292969 67.80043029785156 83.74648284912109 62.56626892089844 85.96034240722656 C 57.14802932739258 88.25206756591797 51.39155578613281 89.41407012939453 45.45676803588867 89.41407012939453 Z" stroke="none"/>
        <path d="M 45.45676803588867 3 C 39.72381210327148 3 34.1639404296875 4.12213134765625 28.93159484863281 6.335227966308594 C 23.87622833251953 8.473472595214844 19.33542633056641 11.53517150878906 15.43529510498047 15.435302734375 C 11.53517150878906 19.33543395996094 8.473464965820312 23.87622833251953 6.335227966308594 28.93160247802734 C 4.122123718261719 34.16394424438477 3 39.72381591796875 3 45.4572868347168 C 3 51.19024658203125 4.122123718261719 56.75011825561523 6.335227966308594 61.98246002197266 C 8.473464965820312 67.03782653808594 11.53517150878906 71.57862854003906 15.43529510498047 75.478759765625 C 19.33542633056641 79.37889099121094 23.87622833251953 82.44058990478516 28.93159484863281 84.57883453369141 C 34.1639404296875 86.79193115234375 39.72381210327148 87.9140625 45.45676803588867 87.9140625 C 51.18972396850586 87.9140625 56.74959564208984 86.79193115234375 61.98194122314453 84.57883453369141 C 67.03730773925781 82.44058990478516 71.57810974121094 79.37889099121094 75.47824096679688 75.478759765625 C 79.37837219238281 71.57862854003906 82.44007110595703 67.03782653808594 84.57830810546875 61.98246002197266 C 86.79141235351562 56.75011825561523 87.91353607177734 51.19024658203125 87.91353607177734 45.4567756652832 C 87.91353607177734 39.72381591796875 86.79141235351562 34.16394424438477 84.57830810546875 28.93160247802734 C 82.44007110595703 23.87622833251953 79.37837219238281 19.33543395996094 75.47824096679688 15.435302734375 C 71.57810974121094 11.53517150878906 67.03730773925781 8.473472595214844 61.98194122314453 6.335227966308594 C 56.74959564208984 4.12213134765625 51.18972396850586 3 45.45676803588867 3 M 45.45676803588867 0 C 70.56185150146484 0 90.91353607177734 20.35169219970703 90.91353607177734 45.4567756652832 L 90.91353607177734 45.4572868347168 C 90.91353607177734 70.5623779296875 70.56185150146484 90.9140625 45.45676803588867 90.9140625 C 20.3516845703125 90.9140625 0 70.5623779296875 0 45.4572868347168 L 0 45.4567756652832 C 0 20.35169219970703 20.3516845703125 0 45.45676803588867 0 Z" stroke="none" fill="#fff"/>
      </g>
    </g>
    <g id="microcontrolador-" transform="translate(14.302 27.343)">
      <g id="Grupo_1109083" data-name="Grupo 1109083" transform="translate(1.006 1.006)">
        <g id="Grupo_1109071" data-name="Grupo 1109071" transform="translate(4.025)">
          <path id="Trazado_901050" data-name="Trazado 901050" d="M64.153,42.216H40V38.191h4.025V32.153H40V24.1h4.025V14.038H40V8H64.153v6.038H84.28V8h4.025v5.032a3.02,3.02,0,0,0,3.019,3.019h5.032v4.025H88.305V32.153h8.051V42.216H90.318V38.191H86.293v4.025H82.267V38.191H78.242v4.025H74.216V38.191H70.191v4.025Z" transform="translate(-40 -8)" fill="#aab2bd"/>
        </g>
        <g id="Grupo_1109072" data-name="Grupo 1109072" transform="translate(28.178)">
          <path id="Trazado_901051" data-name="Trazado 901051" d="M232,8h20.127v6.038H232Z" transform="translate(-232 -8)" fill="#ff826e"/>
        </g>
        <g id="Grupo_1109073" data-name="Grupo 1109073" transform="translate(0 24.153)">
          <path id="Trazado_901052" data-name="Trazado 901052" d="M16.051,200v6.038H8V200h8.051Z" transform="translate(-8 -200)" fill="#ffeaa7"/>
        </g>
        <g id="Grupo_1109074" data-name="Grupo 1109074" transform="translate(0 6.038)">
          <path id="Trazado_901053" data-name="Trazado 901053" d="M16.051,56V66.064H8V56h8.051Z" transform="translate(-8 -56)" fill="#ffeaa7"/>
        </g>
        <g id="Grupo_1109075" data-name="Grupo 1109075" transform="translate(28.178 18.115)">
          <path id="Trazado_901054" data-name="Trazado 901054" d="M252.127,153.006v4.025a1.006,1.006,0,0,1-1.006,1.006H233.006A1.006,1.006,0,0,1,232,157.032v-4.025A1.006,1.006,0,0,1,233.006,152h18.115A1.006,1.006,0,0,1,252.127,153.006Z" transform="translate(-232 -152)" fill="#ff826e"/>
        </g>
        <g id="Grupo_1109076" data-name="Grupo 1109076" transform="translate(52.331 12.076)">
          <path id="Trazado_901055" data-name="Trazado 901055" d="M424,104h8.051v12.076H424Z" transform="translate(-424 -104)" fill="#fcd770"/>
        </g>
        <g id="Grupo_1109077" data-name="Grupo 1109077" transform="translate(50.318 30.191)">
          <path id="Trazado_901056" data-name="Trazado 901056" d="M408,248h4.025v4.025H408Z" transform="translate(-408 -248)" fill="#fcd770"/>
        </g>
        <g id="Grupo_1109078" data-name="Grupo 1109078" transform="translate(42.267 30.191)">
          <path id="Trazado_901057" data-name="Trazado 901057" d="M344,248h4.025v4.025H344Z" transform="translate(-344 -248)" fill="#fcd770"/>
        </g>
        <g id="Grupo_1109079" data-name="Grupo 1109079" transform="translate(34.216 30.191)">
          <path id="Trazado_901058" data-name="Trazado 901058" d="M280,248h4.025v4.025H280Z" transform="translate(-280 -248)" fill="#fcd770"/>
        </g>
        <g id="Grupo_1109080" data-name="Grupo 1109080" transform="translate(12.076 4.025)">
          <path id="Trazado_901059" data-name="Trazado 901059" d="M104,40h12.076v4.025H104Z" transform="translate(-104 -40)" fill="#fcd770"/>
        </g>
        <g id="Grupo_1109081" data-name="Grupo 1109081" transform="translate(12.076 12.076)">
          <path id="Trazado_901060" data-name="Trazado 901060" d="M104,104h12.076v4.025H104Z" transform="translate(-104 -104)" fill="#fcd770"/>
        </g>
        <g id="Grupo_1109082" data-name="Grupo 1109082" transform="translate(15.139 20.027)">
          <circle id="Elipse_11547" data-name="Elipse 11547" cx="3.087" cy="3.087" r="3.087" transform="translate(0 0)" fill="#ff826e"/>
        </g>
      </g>
      <g id="Grupo_1109084" data-name="Grupo 1109084">
        <path id="Trazado_901061" data-name="Trazado 901061" d="M56.356,8.051a2.015,2.015,0,0,1-2.013-2.013V0H4.025V6.038H0V18.115H4.025v6.038H0V32.2H4.025v4.025H62.395V8.051ZM30.191,2.013H32.2V6.038H30.191Zm4.025,0h2.013V6.038H34.216Zm4.025,0h2.013V6.038H38.242Zm4.025,0H44.28V6.038H42.267Zm4.025,0h2.013V6.038H46.293ZM2.013,8.051H8.051V16.1H2.013Zm0,18.115H8.051v4.025H2.013Zm36.229,8.051H36.229V32.2h2.013Zm8.051,0H44.28V32.2h2.013Zm8.051,0H52.331V32.2h2.013Zm2.013,0V30.191H50.318v4.025H48.305V30.191H42.267v4.025H40.255V30.191H34.216v4.025H30.191V30.191H28.178v4.025H26.165V30.191H24.153v4.025H22.14V30.191H20.127v4.025H18.115V30.191H16.1v4.025H14.089V30.191H12.076v4.025H6.038V32.2h4.025V24.153H6.038V18.115h4.025V6.038H6.038V2.013h22.14V8.051h22.14V2.013h2.013V6.038a4.03,4.03,0,0,0,4.025,4.025h4.025v2.013H52.331V26.165h8.051v8.051ZM54.344,22.14h6.038v2.013H54.344Zm0-2.013V18.115h6.038v2.013Zm0-4.025V14.089h6.038V16.1Z"/>
        <path id="Trazado_901062" data-name="Trazado 901062" d="M124.025,160a4.025,4.025,0,1,0,4.025,4.025A4.03,4.03,0,0,0,124.025,160Zm0,6.038a2.013,2.013,0,1,1,2.013-2.013A2.015,2.015,0,0,1,124.025,166.038Z" transform="translate(-104.905 -139.873)"/>
        <path id="Trazado_901063" data-name="Trazado 901063" d="M96,102.038h14.089V96H96Zm2.013-4.025h10.064v2.013H98.013Z" transform="translate(-83.924 -83.924)"/>
        <path id="Trazado_901064" data-name="Trazado 901064" d="M96,38.038h14.089V32H96Zm2.013-4.025h10.064v2.013H98.013Z" transform="translate(-83.924 -27.975)"/>
        <path id="Trazado_901065" data-name="Trazado 901065" d="M244.127,130.013V128h-2.013v2.013H240.1V128h-2.013v2.013h-2.013V128h-2.013v2.013h-2.013V128h-2.013v2.013h-2.013V128h-2.013v2.013A2.015,2.015,0,0,0,224,132.025v4.025a2.015,2.015,0,0,0,2.013,2.013v2.013h2.013v-2.013h2.013v2.013h2.013v-2.013h2.013v2.013h2.013v-2.013h2.013v2.013H240.1v-2.013h2.013v2.013h2.013v-2.013a2.015,2.015,0,0,0,2.013-2.013v-4.025A2.015,2.015,0,0,0,244.127,130.013Zm0,6.038H226.013v-4.025h18.115v4.025Z" transform="translate(-195.822 -111.898)"/>
        <path id="Trazado_901066" data-name="Trazado 901066" d="M219.766,74.343l-1.423,1.423,2.308,2.307h20.544V76.061h-19.71Z" transform="translate(-190.876 -64.991)"/>
      </g>
    </g>
  </g>
</svg>
