<svg xmlns="http://www.w3.org/2000/svg" xmlns:xlink="http://www.w3.org/1999/xlink" width="108.914" height="108.914" viewBox="0 0 108.914 108.914">
  <defs>
    <filter id="Trazado_874925" x="0" y="0" width="108.914" height="108.914" filterUnits="userSpaceOnUse">
      <feOffset dy="3" input="SourceAlpha"/>
      <feGaussianBlur stdDeviation="3" result="blur"/>
      <feFlood flood-opacity="0.161"/>
      <feComposite operator="in" in2="blur"/>
      <feComposite in="SourceGraphic"/>
    </filter>
  </defs>
  <g id="Grupo_1108345" data-name="Grupo 1108345" transform="translate(-818.851 -1958.429)">
    <g transform="matrix(1, 0, 0, 1, 818.85, 1958.43)" filter="url(#Trazado_874925)">
      <g id="Trazado_874925-2" data-name="Trazado 874925" transform="translate(9 6)" fill="#9cc8ff" opacity="0.859">
        <path d="M 45.45676803588867 89.41407012939453 C 39.52198028564453 89.41407012939453 33.76551818847656 88.25206756591797 28.34726715087891 85.96034240722656 C 23.11311721801758 83.74648284912109 18.41204261779785 80.57682800292969 14.37464332580566 76.5394287109375 C 10.33724308013916 72.50202941894531 7.167593002319336 67.80095672607422 4.953730583190918 62.56679534912109 C 2.662005424499512 57.14855575561523 1.500005483627319 51.39208221435547 1.500005483627319 45.45729446411133 C 1.500005483627319 39.52198028564453 2.662005424499512 33.76551818847656 4.953730583190918 28.34726905822754 C 7.167593002319336 23.11310577392578 10.33724308013916 18.41203117370605 14.37464332580566 14.37464332580566 C 18.41204261779785 10.33724403381348 23.11311721801758 7.167593955993652 28.34726715087891 4.953731060028076 C 33.76551818847656 2.662006139755249 39.52198028564453 1.500006198883057 45.45676803588867 1.500006198883057 C 51.39155578613281 1.500006198883057 57.14802932739258 2.662006139755249 62.56626892089844 4.953731060028076 C 67.80043029785156 7.167593955993652 72.50150299072266 10.33724403381348 76.53890228271484 14.37464332580566 C 80.57630920410156 18.41203117370605 83.74595642089844 23.11310577392578 85.95981597900391 28.34726905822754 C 88.25154113769531 33.76551818847656 89.41354370117188 39.52198028564453 89.41354370117188 45.45676803588867 C 89.41354370117188 51.39208221435547 88.25154113769531 57.14855575561523 85.95981597900391 62.56679534912109 C 83.74595642089844 67.80095672607422 80.57630920410156 72.50202941894531 76.53890228271484 76.5394287109375 C 72.50150299072266 80.57682800292969 67.80043029785156 83.74648284912109 62.56626892089844 85.96034240722656 C 57.14802932739258 88.25206756591797 51.39155578613281 89.41407012939453 45.45676803588867 89.41407012939453 Z" stroke="none"/>
        <path d="M 45.45676803588867 3 C 39.72381210327148 3 34.1639404296875 4.12213134765625 28.93159484863281 6.335227966308594 C 23.87622833251953 8.473472595214844 19.33542633056641 11.53517150878906 15.43529510498047 15.435302734375 C 11.53517150878906 19.33543395996094 8.473464965820312 23.87622833251953 6.335227966308594 28.93160247802734 C 4.122123718261719 34.16394424438477 3 39.72381591796875 3 45.4572868347168 C 3 51.19024658203125 4.122123718261719 56.75011825561523 6.335227966308594 61.98246002197266 C 8.473464965820312 67.03782653808594 11.53517150878906 71.57862854003906 15.43529510498047 75.478759765625 C 19.33542633056641 79.37889099121094 23.87622833251953 82.44058990478516 28.93159484863281 84.57883453369141 C 34.1639404296875 86.79193115234375 39.72381210327148 87.9140625 45.45676803588867 87.9140625 C 51.18972396850586 87.9140625 56.74959564208984 86.79193115234375 61.98194122314453 84.57883453369141 C 67.03730773925781 82.44058990478516 71.57810974121094 79.37889099121094 75.47824096679688 75.478759765625 C 79.37837219238281 71.57862854003906 82.44007110595703 67.03782653808594 84.57830810546875 61.98246002197266 C 86.79141235351562 56.75011825561523 87.91353607177734 51.19024658203125 87.91353607177734 45.4567756652832 C 87.91353607177734 39.72381591796875 86.79141235351562 34.16394424438477 84.57830810546875 28.93160247802734 C 82.44007110595703 23.87622833251953 79.37837219238281 19.33543395996094 75.47824096679688 15.435302734375 C 71.57810974121094 11.53517150878906 67.03730773925781 8.473472595214844 61.98194122314453 6.335227966308594 C 56.74959564208984 4.12213134765625 51.18972396850586 3 45.45676803588867 3 M 45.45676803588867 0 C 70.56185150146484 0 90.91353607177734 20.35169219970703 90.91353607177734 45.4567756652832 L 90.91353607177734 45.4572868347168 C 90.91353607177734 70.5623779296875 70.56185150146484 90.9140625 45.45676803588867 90.9140625 C 20.3516845703125 90.9140625 0 70.5623779296875 0 45.4572868347168 L 0 45.4567756652832 C 0 20.35169219970703 20.3516845703125 0 45.45676803588867 0 Z" stroke="none" fill="#fff"/>
      </g>
    </g>
    <g id="precision" transform="translate(844.851 1982.428)">
      <g id="Grupo_1109109" data-name="Grupo 1109109" transform="translate(6.027 6.027)">
        <path id="Trazado_901097" data-name="Trazado 901097" d="M77.526,56A21.526,21.526,0,1,0,99.052,77.526,21.526,21.526,0,0,0,77.526,56Z" transform="translate(-56 -56)" fill="#ff637b"/>
        <path id="Trazado_901098" data-name="Trazado 901098" d="M157.839,146A11.839,11.839,0,1,1,146,157.839,11.853,11.853,0,0,1,157.839,146Z" transform="translate(-136.313 -136.313)" fill="#f2f2fc"/>
      </g>
      <g id="Grupo_1109110" data-name="Grupo 1109110">
        <path id="Trazado_901099" data-name="Trazado 901099" d="M307.076,98.153A1.076,1.076,0,1,0,306,97.076,1.077,1.077,0,0,0,307.076,98.153Z" transform="translate(-273.065 -85.668)"/>
        <path id="Trazado_901100" data-name="Trazado 901100" d="M340.641,118.685a16.209,16.209,0,0,1,5.464,6.99,1.076,1.076,0,0,0,1.995-.81,18.361,18.361,0,0,0-6.188-7.919,1.076,1.076,0,1,0-1.27,1.738Z" transform="translate(-303.584 -104.175)"/>
        <path id="Trazado_901101" data-name="Trazado 901101" d="M54.03,26.477h-3.9a22.632,22.632,0,0,0-21.5-21.5v-3.9a1.076,1.076,0,0,0-2.153,0v3.9a22.632,22.632,0,0,0-21.5,21.5h-3.9a1.076,1.076,0,0,0,0,2.153h3.9a22.632,22.632,0,0,0,21.5,21.5v3.9a1.076,1.076,0,0,0,2.153,0v-3.9a22.632,22.632,0,0,0,21.5-21.5h3.9a1.076,1.076,0,1,0,0-2.153Zm-6.056,0H40.424A12.936,12.936,0,0,0,28.63,14.683V7.132A20.478,20.478,0,0,1,47.975,26.477ZM36.164,28.628h2.1a10.783,10.783,0,0,1-9.633,9.634v-2.1a1.076,1.076,0,0,0-2.153,0v2.1a10.782,10.782,0,0,1-9.633-9.633h2.1a1.076,1.076,0,1,0,0-2.153h-2.1a10.782,10.782,0,0,1,9.633-9.633v2.1a1.076,1.076,0,0,0,2.153,0v-2.1a10.782,10.782,0,0,1,9.633,9.633h-2.1a1.076,1.076,0,1,0,0,2.152Zm-9.687-21.5v7.551A12.936,12.936,0,0,0,14.683,26.477H7.132A20.478,20.478,0,0,1,26.477,7.132ZM7.132,28.63h7.551A12.936,12.936,0,0,0,26.477,40.424v7.551A20.478,20.478,0,0,1,7.132,28.63Zm21.5,19.345V40.424a12.937,12.937,0,0,0,11.794-11.8h7.551A20.479,20.479,0,0,1,28.63,47.975Z"/>
        <path id="Trazado_901102" data-name="Trazado 901102" d="M215.687,210.305h-3.229v-3.229a1.076,1.076,0,0,0-2.153,0v3.229h-3.229a1.076,1.076,0,0,0,0,2.153h3.229v3.229a1.076,1.076,0,0,0,2.153,0v-3.229h3.229a1.076,1.076,0,0,0,0-2.153Z" transform="translate(-183.828 -183.828)"/>
      </g>
    </g>
  </g>
</svg>
