<svg xmlns="http://www.w3.org/2000/svg" xmlns:xlink="http://www.w3.org/1999/xlink" width="108.914" height="108.914" viewBox="0 0 108.914 108.914">
  <defs>
    <filter id="Trazado_874925" x="0" y="0" width="108.914" height="108.914" filterUnits="userSpaceOnUse">
      <feOffset dy="3" input="SourceAlpha"/>
      <feGaussianBlur stdDeviation="3" result="blur"/>
      <feFlood flood-opacity="0.161"/>
      <feComposite operator="in" in2="blur"/>
      <feComposite in="SourceGraphic"/>
    </filter>
  </defs>
  <g id="Grupo_1108346" data-name="Grupo 1108346" transform="translate(-818.384 -1958.429)">
    <g transform="matrix(1, 0, 0, 1, 818.38, 1958.43)" filter="url(#Trazado_874925)">
      <g id="Trazado_874925-2" data-name="Trazado 874925" transform="translate(9 6)" fill="#9cc8ff" opacity="0.859">
        <path d="M 45.45676803588867 89.41407012939453 C 39.52198028564453 89.41407012939453 33.76551818847656 88.25206756591797 28.34726715087891 85.96034240722656 C 23.11311721801758 83.74648284912109 18.41204261779785 80.57682800292969 14.37464332580566 76.5394287109375 C 10.33724308013916 72.50202941894531 7.167593002319336 67.80095672607422 4.953730583190918 62.56679534912109 C 2.662005424499512 57.14855575561523 1.500005483627319 51.39208221435547 1.500005483627319 45.45729446411133 C 1.500005483627319 39.52198028564453 2.662005424499512 33.76551818847656 4.953730583190918 28.34726905822754 C 7.167593002319336 23.11310577392578 10.33724308013916 18.41203117370605 14.37464332580566 14.37464332580566 C 18.41204261779785 10.33724403381348 23.11311721801758 7.167593955993652 28.34726715087891 4.953731060028076 C 33.76551818847656 2.662006139755249 39.52198028564453 1.500006198883057 45.45676803588867 1.500006198883057 C 51.39155578613281 1.500006198883057 57.14802932739258 2.662006139755249 62.56626892089844 4.953731060028076 C 67.80043029785156 7.167593955993652 72.50150299072266 10.33724403381348 76.53890228271484 14.37464332580566 C 80.57630920410156 18.41203117370605 83.74595642089844 23.11310577392578 85.95981597900391 28.34726905822754 C 88.25154113769531 33.76551818847656 89.41354370117188 39.52198028564453 89.41354370117188 45.45676803588867 C 89.41354370117188 51.39208221435547 88.25154113769531 57.14855575561523 85.95981597900391 62.56679534912109 C 83.74595642089844 67.80095672607422 80.57630920410156 72.50202941894531 76.53890228271484 76.5394287109375 C 72.50150299072266 80.57682800292969 67.80043029785156 83.74648284912109 62.56626892089844 85.96034240722656 C 57.14802932739258 88.25206756591797 51.39155578613281 89.41407012939453 45.45676803588867 89.41407012939453 Z" stroke="none"/>
        <path d="M 45.45676803588867 3 C 39.72381210327148 3 34.1639404296875 4.12213134765625 28.93159484863281 6.335227966308594 C 23.87622833251953 8.473472595214844 19.33542633056641 11.53517150878906 15.43529510498047 15.435302734375 C 11.53517150878906 19.33543395996094 8.473464965820312 23.87622833251953 6.335227966308594 28.93160247802734 C 4.122123718261719 34.16394424438477 3 39.72381591796875 3 45.4572868347168 C 3 51.19024658203125 4.122123718261719 56.75011825561523 6.335227966308594 61.98246002197266 C 8.473464965820312 67.03782653808594 11.53517150878906 71.57862854003906 15.43529510498047 75.478759765625 C 19.33542633056641 79.37889099121094 23.87622833251953 82.44058990478516 28.93159484863281 84.57883453369141 C 34.1639404296875 86.79193115234375 39.72381210327148 87.9140625 45.45676803588867 87.9140625 C 51.18972396850586 87.9140625 56.74959564208984 86.79193115234375 61.98194122314453 84.57883453369141 C 67.03730773925781 82.44058990478516 71.57810974121094 79.37889099121094 75.47824096679688 75.478759765625 C 79.37837219238281 71.57862854003906 82.44007110595703 67.03782653808594 84.57830810546875 61.98246002197266 C 86.79141235351562 56.75011825561523 87.91353607177734 51.19024658203125 87.91353607177734 45.4567756652832 C 87.91353607177734 39.72381591796875 86.79141235351562 34.16394424438477 84.57830810546875 28.93160247802734 C 82.44007110595703 23.87622833251953 79.37837219238281 19.33543395996094 75.47824096679688 15.435302734375 C 71.57810974121094 11.53517150878906 67.03730773925781 8.473472595214844 61.98194122314453 6.335227966308594 C 56.74959564208984 4.12213134765625 51.18972396850586 3 45.45676803588867 3 M 45.45676803588867 0 C 70.56185150146484 0 90.91353607177734 20.35169219970703 90.91353607177734 45.4567756652832 L 90.91353607177734 45.4572868347168 C 90.91353607177734 70.5623779296875 70.56185150146484 90.9140625 45.45676803588867 90.9140625 C 20.3516845703125 90.9140625 0 70.5623779296875 0 45.4572868347168 L 0 45.4567756652832 C 0 20.35169219970703 20.3516845703125 0 45.45676803588867 0 Z" stroke="none" fill="#fff"/>
      </g>
    </g>
    <g id="print_576040" transform="translate(849.384 1985.71)">
      <path id="Trazado_901103" data-name="Trazado 901103" d="M47.81,23.9v.082a8.587,8.587,0,0,1-6.357,8.277v6.574a1.5,1.5,0,0,1-1.509,1.5H27.976v6.551a1.51,1.51,0,0,1-1.509,1.509H1.509A1.5,1.5,0,0,1,0,46.885V23.937a8.606,8.606,0,0,1,4.049-7.291A8.619,8.619,0,0,1,8.628.719H39.181A8.608,8.608,0,0,1,47.81,9.3v.082a8.6,8.6,0,0,1-4.019,7.261A8.569,8.569,0,0,1,47.81,23.9Zm-3.018.082V23.9a5.588,5.588,0,0,0-11.175,0v.082a5.57,5.57,0,0,0,5.565,5.565h.045A5.57,5.57,0,0,0,44.792,23.981Zm0-14.6V9.3a5.588,5.588,0,0,0-11.175,0v.082a5.576,5.576,0,0,0,5.565,5.573h.045A5.576,5.576,0,0,0,44.792,9.384ZM38.434,37.323V32.565H27.976v4.759ZM32.667,3.737H8.628a5.61,5.61,0,0,0,0,11.22H32.667A8.542,8.542,0,0,1,30.6,9.385V9.3A8.537,8.537,0,0,1,32.667,3.737Zm-4.691,25.81h4.691A8.523,8.523,0,0,1,30.6,23.981V23.9a8.533,8.533,0,0,1,1.987-5.483A5.571,5.571,0,0,0,27.976,23.9v5.648Zm-.964-11.22H8.628a5.551,5.551,0,0,0-5.61,5.61v21.44h21.94V23.9A8.569,8.569,0,0,1,27.012,18.326Z" fill="#1d1d1b"/>
      <g id="Grupo_1109111" data-name="Grupo 1109111" transform="translate(33.616 3.737)">
        <path id="Trazado_901104" data-name="Trazado 901104" d="M371.175,194.853v.082a5.57,5.57,0,0,1-5.565,5.565h-.045A5.57,5.57,0,0,1,360,194.935v-.082a5.588,5.588,0,0,1,11.175,0Zm-3.324.037a2.27,2.27,0,1,0-.665,1.6A2.233,2.233,0,0,0,367.851,194.89Z" transform="translate(-360 -174.691)" fill="#9d9d9d"/>
        <path id="Trazado_901105" data-name="Trazado 901105" d="M371.175,38.605v.082a5.576,5.576,0,0,1-5.565,5.573h-.045A5.576,5.576,0,0,1,360,38.688v-.082a5.588,5.588,0,0,1,11.175,0Zm-3.324.037a2.27,2.27,0,1,0-.665,1.606A2.26,2.26,0,0,0,367.851,38.643Z" transform="translate(-360 -33.04)" fill="#9d9d9d"/>
      </g>
      <g id="Grupo_1109112" data-name="Grupo 1109112" transform="translate(38.449 8.593)">
        <path id="Trazado_901106" data-name="Trazado 901106" d="M412.515,85.039a.751.751,0,1,1-.755.754A.756.756,0,0,1,412.515,85.039Z" transform="translate(-411.76 -85.039)" fill="#f9f9f9"/>
        <path id="Trazado_901107" data-name="Trazado 901107" d="M412.515,241.36a.751.751,0,1,1-.755.754A.751.751,0,0,1,412.515,241.36Z" transform="translate(-411.76 -226.763)" fill="#f9f9f9"/>
      </g>
      <g id="Grupo_1109113" data-name="Grupo 1109113" transform="translate(36.94 7.084)">
        <path id="Trazado_901108" data-name="Trazado 901108" d="M397.864,70.389a.751.751,0,1,0,.754.747A.757.757,0,0,0,397.864,70.389Zm0-1.509a2.263,2.263,0,1,1-2.264,2.263A2.26,2.26,0,0,1,397.864,68.88Z" transform="translate(-395.6 -68.88)" fill="#1d1d1b"/>
        <path id="Trazado_901109" data-name="Trazado 901109" d="M397.864,228.138a.751.751,0,1,0-.755-.747A.752.752,0,0,0,397.864,228.138Zm0-3.018a2.267,2.267,0,0,1,2.263,2.263,2.233,2.233,0,0,1-.665,1.6,2.262,2.262,0,1,1-1.6-3.862Z" transform="translate(-395.6 -210.531)" fill="#1d1d1b"/>
      </g>
      <rect id="Rectángulo_403383" data-name="Rectángulo 403383" width="10.458" height="4.758" transform="translate(27.976 32.565)" fill="#feaa40"/>
      <path id="Trazado_901110" data-name="Trazado 901110" d="M37.93,33.04H61.969A8.537,8.537,0,0,0,59.9,38.605v.082a8.542,8.542,0,0,0,2.069,5.573H37.93a5.61,5.61,0,1,1,0-11.22Z" transform="translate(-29.302 -29.303)" fill="#afbdc4"/>
      <path id="Trazado_901111" data-name="Trazado 901111" d="M304.209,190.24a8.533,8.533,0,0,0-1.987,5.483v.082a8.522,8.522,0,0,0,2.069,5.565H299.6v-5.647A5.571,5.571,0,0,1,304.209,190.24Z" transform="translate(-271.624 -171.824)" fill="#788f9b"/>
      <g id="Grupo_1109114" data-name="Grupo 1109114" transform="translate(7.986 26.977)">
        <path id="Trazado_901112" data-name="Trazado 901112" d="M98.331,283.048a1.122,1.122,0,0,1-1.128,1.128H86.647a1.128,1.128,0,0,1,0-2.256H97.2A1.122,1.122,0,0,1,98.331,283.048Z" transform="translate(-85.519 -281.92)" fill="#1d1d1b"/>
        <path id="Trazado_901113" data-name="Trazado 901113" d="M98.331,326.168A1.129,1.129,0,0,1,97.2,327.3H86.647a1.132,1.132,0,0,1,0-2.263H97.2A1.127,1.127,0,0,1,98.331,326.168Z" transform="translate(-85.519 -321.014)" fill="#1d1d1b"/>
        <path id="Trazado_901114" data-name="Trazado 901114" d="M98.331,369.368A1.127,1.127,0,0,1,97.2,370.5H86.647a1.128,1.128,0,1,1,0-2.256H97.2A1.122,1.122,0,0,1,98.331,369.368Z" transform="translate(-85.519 -360.18)" fill="#1d1d1b"/>
      </g>
      <path id="Trazado_901115" data-name="Trazado 901115" d="M50.1,211.145a1.127,1.127,0,0,0-1.128-1.128H38.415a1.132,1.132,0,0,0,0,2.263H48.97A1.129,1.129,0,0,0,50.1,211.145ZM48.97,200.187a1.128,1.128,0,0,0,0-2.256H38.415a1.128,1.128,0,0,0,0,2.256Zm0,4.034a1.132,1.132,0,0,0,0-2.263H38.415a1.132,1.132,0,0,0,0,2.263Zm0,4.026a1.128,1.128,0,1,0,0-2.256H38.415a1.128,1.128,0,1,0,0,2.256ZM37.929,189.28H56.314a8.569,8.569,0,0,0-2.054,5.573V216.33H32.319V194.89A5.551,5.551,0,0,1,37.929,189.28Z" transform="translate(-29.301 -170.954)" fill="#fedfb1"/>
      <path id="Trazado_901116" data-name="Trazado 901116" d="M97.2,411.36a1.132,1.132,0,0,1,0,2.263H86.647a1.132,1.132,0,0,1,0-2.263Z" transform="translate(-77.533 -372.296)" fill="#1d1d1b"/>
    </g>
  </g>
</svg>
