<svg xmlns="http://www.w3.org/2000/svg" xmlns:xlink="http://www.w3.org/1999/xlink" width="108.914" height="108.914" viewBox="0 0 108.914 108.914">
  <defs>
    <filter id="Trazado_874925" x="0" y="0" width="108.914" height="108.914" filterUnits="userSpaceOnUse">
      <feOffset dy="3" input="SourceAlpha"/>
      <feGaussianBlur stdDeviation="3" result="blur"/>
      <feFlood flood-opacity="0.161"/>
      <feComposite operator="in" in2="blur"/>
      <feComposite in="SourceGraphic"/>
    </filter>
  </defs>
  <g id="Grupo_1108320" data-name="Grupo 1108320" transform="translate(9 6)">
    <g transform="matrix(1, 0, 0, 1, -9, -6)" filter="url(#Trazado_874925)">
      <g id="Trazado_874925-2" data-name="Trazado 874925" transform="translate(9 6)" fill="#de93ea" opacity="0.859">
        <path d="M 45.45676803588867 89.41407012939453 C 39.52198028564453 89.41407012939453 33.76551818847656 88.25206756591797 28.34726715087891 85.96034240722656 C 23.11311721801758 83.74648284912109 18.41204261779785 80.57682800292969 14.37464332580566 76.5394287109375 C 10.33724308013916 72.50202941894531 7.167593002319336 67.80095672607422 4.953730583190918 62.56679534912109 C 2.662005424499512 57.14855575561523 1.500005483627319 51.39208221435547 1.500005483627319 45.45729446411133 C 1.500005483627319 39.52198028564453 2.662005424499512 33.76551818847656 4.953730583190918 28.34726905822754 C 7.167593002319336 23.11310577392578 10.33724308013916 18.41203117370605 14.37464332580566 14.37464332580566 C 18.41204261779785 10.33724403381348 23.11311721801758 7.167593955993652 28.34726715087891 4.953731060028076 C 33.76551818847656 2.662006139755249 39.52198028564453 1.500006198883057 45.45676803588867 1.500006198883057 C 51.39155578613281 1.500006198883057 57.14802932739258 2.662006139755249 62.56626892089844 4.953731060028076 C 67.80043029785156 7.167593955993652 72.50150299072266 10.33724403381348 76.53890228271484 14.37464332580566 C 80.57630920410156 18.41203117370605 83.74595642089844 23.11310577392578 85.95981597900391 28.34726905822754 C 88.25154113769531 33.76551818847656 89.41354370117188 39.52198028564453 89.41354370117188 45.45676803588867 C 89.41354370117188 51.39208221435547 88.25154113769531 57.14855575561523 85.95981597900391 62.56679534912109 C 83.74595642089844 67.80095672607422 80.57630920410156 72.50202941894531 76.53890228271484 76.5394287109375 C 72.50150299072266 80.57682800292969 67.80043029785156 83.74648284912109 62.56626892089844 85.96034240722656 C 57.14802932739258 88.25206756591797 51.39155578613281 89.41407012939453 45.45676803588867 89.41407012939453 Z" stroke="none"/>
        <path d="M 45.45676803588867 3 C 39.72381210327148 3 34.1639404296875 4.12213134765625 28.93159484863281 6.335227966308594 C 23.87622833251953 8.473472595214844 19.33542633056641 11.53517150878906 15.43529510498047 15.435302734375 C 11.53517150878906 19.33543395996094 8.473464965820312 23.87622833251953 6.335227966308594 28.93160247802734 C 4.122123718261719 34.16394424438477 3 39.72381591796875 3 45.4572868347168 C 3 51.19024658203125 4.122123718261719 56.75011825561523 6.335227966308594 61.98246002197266 C 8.473464965820312 67.03782653808594 11.53517150878906 71.57862854003906 15.43529510498047 75.478759765625 C 19.33542633056641 79.37889099121094 23.87622833251953 82.44058990478516 28.93159484863281 84.57883453369141 C 34.1639404296875 86.79193115234375 39.72381210327148 87.9140625 45.45676803588867 87.9140625 C 51.18972396850586 87.9140625 56.74959564208984 86.79193115234375 61.98194122314453 84.57883453369141 C 67.03730773925781 82.44058990478516 71.57810974121094 79.37889099121094 75.47824096679688 75.478759765625 C 79.37837219238281 71.57862854003906 82.44007110595703 67.03782653808594 84.57830810546875 61.98246002197266 C 86.79141235351562 56.75011825561523 87.91353607177734 51.19024658203125 87.91353607177734 45.4567756652832 C 87.91353607177734 39.72381591796875 86.79141235351562 34.16394424438477 84.57830810546875 28.93160247802734 C 82.44007110595703 23.87622833251953 79.37837219238281 19.33543395996094 75.47824096679688 15.435302734375 C 71.57810974121094 11.53517150878906 67.03730773925781 8.473472595214844 61.98194122314453 6.335227966308594 C 56.74959564208984 4.12213134765625 51.18972396850586 3 45.45676803588867 3 M 45.45676803588867 0 C 70.56185150146484 0 90.91353607177734 20.35169219970703 90.91353607177734 45.4567756652832 L 90.91353607177734 45.4572868347168 C 90.91353607177734 70.5623779296875 70.56185150146484 90.9140625 45.45676803588867 90.9140625 C 20.3516845703125 90.9140625 0 70.5623779296875 0 45.4572868347168 L 0 45.4567756652832 C 0 20.35169219970703 20.3516845703125 0 45.45676803588867 0 Z" stroke="none" fill="#fff"/>
      </g>
    </g>
    <g id="microcontrolador" transform="translate(13.603 13.71)">
      <g id="Grupo_1109096" data-name="Grupo 1109096">
        <g id="Grupo_1109085" data-name="Grupo 1109085">
          <path id="Trazado_901067" data-name="Trazado 901067" d="M50,54H6a4,4,0,0,1-4-4V18a4,4,0,0,1,4-4H40v2a2.006,2.006,0,0,0,2,2H54a2.006,2.006,0,0,0,2-2V14h2a4,4,0,0,1,4,4V42H50Z" fill="#aab2bd"/>
        </g>
        <g id="Grupo_1109086" data-name="Grupo 1109086">
          <circle id="Elipse_11548" data-name="Elipse 11548" cx="3" cy="3" r="3" transform="translate(52 22)" fill="#fcd770"/>
        </g>
        <g id="Grupo_1109087" data-name="Grupo 1109087">
          <circle id="Elipse_11549" data-name="Elipse 11549" cx="3" cy="3" r="3" transform="translate(42 22)" fill="#fcd770"/>
        </g>
        <g id="Grupo_1109088" data-name="Grupo 1109088">
          <circle id="Elipse_11550" data-name="Elipse 11550" cx="2" cy="2" r="2" transform="translate(6 18)" fill="#ff826e"/>
        </g>
        <g id="Grupo_1109089" data-name="Grupo 1109089">
          <path id="Trazado_901068" data-name="Trazado 901068" d="M40,14V12a2.006,2.006,0,0,1,2-2H54a2.006,2.006,0,0,1,2,2v4a2.006,2.006,0,0,1-2,2H42a2.006,2.006,0,0,1-2-2Z" fill="#ff826e"/>
        </g>
        <g id="Grupo_1109090" data-name="Grupo 1109090">
          <circle id="Elipse_11551" data-name="Elipse 11551" cx="3" cy="3" r="3" transform="translate(40 44)" fill="#b4dd7f"/>
        </g>
        <g id="Grupo_1109091" data-name="Grupo 1109091">
          <path id="Trazado_901069" data-name="Trazado 901069" d="M62,42v8a4,4,0,0,1-4,4H50V42Z" fill="#e6e9ed"/>
        </g>
        <g id="Grupo_1109092" data-name="Grupo 1109092">
          <circle id="Elipse_11552" data-name="Elipse 11552" cx="2" cy="2" r="2" transform="translate(54 46)" fill="#ff826e"/>
        </g>
        <g id="Grupo_1109093" data-name="Grupo 1109093">
          <path id="Trazado_901070" data-name="Trazado 901070" d="M42,32H58v6H42Z" fill="#69d6f4"/>
        </g>
        <g id="Grupo_1109094" data-name="Grupo 1109094">
          <path id="Trazado_901071" data-name="Trazado 901071" d="M32,44v1a1,1,0,0,1-1,1H13a1,1,0,0,1-1-1V27a1,1,0,0,1,1-1H31a1,1,0,0,1,1,1V44Z" fill="#fcd770"/>
        </g>
        <g id="Grupo_1109095" data-name="Grupo 1109095">
          <path id="Trazado_901072" data-name="Trazado 901072" d="M16,30H28V42H16Z" fill="#ffeaa7"/>
        </g>
      </g>
      <g id="Grupo_1109097" data-name="Grupo 1109097">
        <path id="Trazado_901073" data-name="Trazado 901073" d="M58,13H57V12a3,3,0,0,0-3-3H42a3,3,0,0,0-3,3v1H6a5.006,5.006,0,0,0-5,5V50a5.006,5.006,0,0,0,5,5H58a5.006,5.006,0,0,0,5-5V18A5.006,5.006,0,0,0,58,13ZM41,12a1,1,0,0,1,1-1H54a1,1,0,0,1,1,1v4a1,1,0,0,1-1,1H42a1,1,0,0,1-1-1ZM3,50V18a3,3,0,0,1,3-3H39v1a3,3,0,0,0,3,3H54a3,3,0,0,0,3-3V15h1a3,3,0,0,1,3,3V41H49V53H6A3,3,0,0,1,3,50Zm55,3H51V43H61v7A3,3,0,0,1,58,53Z"/>
        <path id="Trazado_901074" data-name="Trazado 901074" d="M11,20a3,3,0,1,0-3,3A3,3,0,0,0,11,20ZM7,20a1,1,0,1,1,1,1A1,1,0,0,1,7,20Z"/>
        <path id="Trazado_901075" data-name="Trazado 901075" d="M56,45a3,3,0,1,0,3,3A3,3,0,0,0,56,45Zm0,4a1,1,0,1,1,1-1A1,1,0,0,1,56,49Z"/>
        <path id="Trazado_901076" data-name="Trazado 901076" d="M15,43H29V29H15Zm2-12H27V41H17Z"/>
        <path id="Trazado_901077" data-name="Trazado 901077" d="M31,25V21H29v4H27V21H25v4H23V21H21v4H19V21H17v4H15V21H13v4a2,2,0,0,0-2,2H7v2h4v2H7v2h4v2H7v2h4v2H7v2h4v2H7v2h4a2,2,0,0,0,2,2v4h2V47h2v4h2V47h2v4h2V47h2v4h2V47h2v4h2V47a2,2,0,0,0,2-2h4V43H33V41h4V39H33V37h4V35H33V33h4V31H33V29h4V27H33A2,2,0,0,0,31,25ZM13,45V27H31V45Z"/>
        <path id="Trazado_901078" data-name="Trazado 901078" d="M45,29a4,4,0,1,0-4-4A4,4,0,0,0,45,29Zm0-6a2,2,0,1,1-2,2A2,2,0,0,1,45,23Z"/>
        <path id="Trazado_901079" data-name="Trazado 901079" d="M55,29a4,4,0,1,0-4-4A4,4,0,0,0,55,29Zm0-6a2,2,0,1,1-2,2A2,2,0,0,1,55,23Z"/>
        <path id="Trazado_901080" data-name="Trazado 901080" d="M59,31H41v8H59Zm-2,6H43V33H57Z"/>
        <path id="Trazado_901081" data-name="Trazado 901081" d="M43,43a4,4,0,1,0,4,4A4,4,0,0,0,43,43Zm0,6a2,2,0,1,1,2-2A2,2,0,0,1,43,49Z"/>
        <path id="Trazado_901082" data-name="Trazado 901082" d="M51,13h2v2H51Z"/>
        <path id="Trazado_901083" data-name="Trazado 901083" d="M47,13h2v2H47Z"/>
        <path id="Trazado_901084" data-name="Trazado 901084" d="M43,13h2v2H43Z"/>
      </g>
    </g>
  </g>
</svg>
