<svg xmlns="http://www.w3.org/2000/svg" xmlns:xlink="http://www.w3.org/1999/xlink" width="108.914" height="108.914" viewBox="0 0 108.914 108.914">
  <defs>
    <filter id="Trazado_874925" x="0" y="0" width="108.914" height="108.914" filterUnits="userSpaceOnUse">
      <feOffset dy="3" input="SourceAlpha"/>
      <feGaussianBlur stdDeviation="3" result="blur"/>
      <feFlood flood-opacity="0.161"/>
      <feComposite operator="in" in2="blur"/>
      <feComposite in="SourceGraphic"/>
    </filter>
  </defs>
  <g id="Grupo_1108347" data-name="Grupo 1108347" transform="translate(-818.851 -1958.181)">
    <g transform="matrix(1, 0, 0, 1, 818.85, 1958.18)" filter="url(#Trazado_874925)">
      <g id="Trazado_874925-2" data-name="Trazado 874925" transform="translate(9 6)" fill="#9cc8ff" opacity="0.859">
        <path d="M 45.45676803588867 89.41407012939453 C 39.52198028564453 89.41407012939453 33.76551818847656 88.25206756591797 28.34726715087891 85.96034240722656 C 23.11311721801758 83.74648284912109 18.41204261779785 80.57682800292969 14.37464332580566 76.5394287109375 C 10.33724308013916 72.50202941894531 7.167593002319336 67.80095672607422 4.953730583190918 62.56679534912109 C 2.662005424499512 57.14855575561523 1.500005483627319 51.39208221435547 1.500005483627319 45.45729446411133 C 1.500005483627319 39.52198028564453 2.662005424499512 33.76551818847656 4.953730583190918 28.34726905822754 C 7.167593002319336 23.11310577392578 10.33724308013916 18.41203117370605 14.37464332580566 14.37464332580566 C 18.41204261779785 10.33724403381348 23.11311721801758 7.167593955993652 28.34726715087891 4.953731060028076 C 33.76551818847656 2.662006139755249 39.52198028564453 1.500006198883057 45.45676803588867 1.500006198883057 C 51.39155578613281 1.500006198883057 57.14802932739258 2.662006139755249 62.56626892089844 4.953731060028076 C 67.80043029785156 7.167593955993652 72.50150299072266 10.33724403381348 76.53890228271484 14.37464332580566 C 80.57630920410156 18.41203117370605 83.74595642089844 23.11310577392578 85.95981597900391 28.34726905822754 C 88.25154113769531 33.76551818847656 89.41354370117188 39.52198028564453 89.41354370117188 45.45676803588867 C 89.41354370117188 51.39208221435547 88.25154113769531 57.14855575561523 85.95981597900391 62.56679534912109 C 83.74595642089844 67.80095672607422 80.57630920410156 72.50202941894531 76.53890228271484 76.5394287109375 C 72.50150299072266 80.57682800292969 67.80043029785156 83.74648284912109 62.56626892089844 85.96034240722656 C 57.14802932739258 88.25206756591797 51.39155578613281 89.41407012939453 45.45676803588867 89.41407012939453 Z" stroke="none"/>
        <path d="M 45.45676803588867 3 C 39.72381210327148 3 34.1639404296875 4.12213134765625 28.93159484863281 6.335227966308594 C 23.87622833251953 8.473472595214844 19.33542633056641 11.53517150878906 15.43529510498047 15.435302734375 C 11.53517150878906 19.33543395996094 8.473464965820312 23.87622833251953 6.335227966308594 28.93160247802734 C 4.122123718261719 34.16394424438477 3 39.72381591796875 3 45.4572868347168 C 3 51.19024658203125 4.122123718261719 56.75011825561523 6.335227966308594 61.98246002197266 C 8.473464965820312 67.03782653808594 11.53517150878906 71.57862854003906 15.43529510498047 75.478759765625 C 19.33542633056641 79.37889099121094 23.87622833251953 82.44058990478516 28.93159484863281 84.57883453369141 C 34.1639404296875 86.79193115234375 39.72381210327148 87.9140625 45.45676803588867 87.9140625 C 51.18972396850586 87.9140625 56.74959564208984 86.79193115234375 61.98194122314453 84.57883453369141 C 67.03730773925781 82.44058990478516 71.57810974121094 79.37889099121094 75.47824096679688 75.478759765625 C 79.37837219238281 71.57862854003906 82.44007110595703 67.03782653808594 84.57830810546875 61.98246002197266 C 86.79141235351562 56.75011825561523 87.91353607177734 51.19024658203125 87.91353607177734 45.4567756652832 C 87.91353607177734 39.72381591796875 86.79141235351562 34.16394424438477 84.57830810546875 28.93160247802734 C 82.44007110595703 23.87622833251953 79.37837219238281 19.33543395996094 75.47824096679688 15.435302734375 C 71.57810974121094 11.53517150878906 67.03730773925781 8.473472595214844 61.98194122314453 6.335227966308594 C 56.74959564208984 4.12213134765625 51.18972396850586 3 45.45676803588867 3 M 45.45676803588867 0 C 70.56185150146484 0 90.91353607177734 20.35169219970703 90.91353607177734 45.4567756652832 L 90.91353607177734 45.4572868347168 C 90.91353607177734 70.5623779296875 70.56185150146484 90.9140625 45.45676803588867 90.9140625 C 20.3516845703125 90.9140625 0 70.5623779296875 0 45.4572868347168 L 0 45.4567756652832 C 0 20.35169219970703 20.3516845703125 0 45.45676803588867 0 Z" stroke="none" fill="#fff"/>
      </g>
    </g>
    <g id="suggestion_11921608" transform="translate(841.865 1978.181)">
      <g id="Grupo_1109122" data-name="Grupo 1109122" transform="translate(44.227 6.173)">
        <path id="Trazado_901132" data-name="Trazado 901132" d="M368.986,36.9a6.392,6.392,0,1,0,6.4,6.386A6.392,6.392,0,0,0,368.986,36.9Zm0,11.516A5.118,5.118,0,1,1,374.1,43.3,5.124,5.124,0,0,1,368.986,48.416Z" transform="translate(-362.6 -36.9)" fill="#231f20"/>
      </g>
      <g id="Grupo_1109123" data-name="Grupo 1109123" transform="translate(46.63 9.772)">
        <path id="Trazado_901133" data-name="Trazado 901133" d="M390.478,68.081l-4.329,4.329a.6.6,0,0,1-.442.191.624.624,0,0,1-.454-.191l-2.368-2.368a.639.639,0,0,1,.9-.909l1.925,1.925,3.874-3.874A.634.634,0,0,1,390.478,68.081Z" transform="translate(-382.692 -66.992)" fill="#231f20"/>
      </g>
      <g id="Grupo_1109124" data-name="Grupo 1109124" transform="translate(5.961 11.291)">
        <path id="Trazado_901134" data-name="Trazado 901134" d="M48.986,79.7a6.392,6.392,0,1,0,6.4,6.4A6.4,6.4,0,0,0,48.986,79.7Zm0,11.516A5.118,5.118,0,1,1,54.1,86.1,5.124,5.124,0,0,1,48.986,91.216Z" transform="translate(-42.6 -79.7)" fill="#231f20"/>
      </g>
      <g id="Grupo_1109125" data-name="Grupo 1109125" transform="translate(9.301 14.642)">
        <path id="Trazado_901135" data-name="Trazado 901135" d="M76.429,112.72a.639.639,0,0,1-.9.909l-1.961-1.961-1.949,1.961a.653.653,0,0,1-.909,0,.642.642,0,0,1,0-.909l1.961-1.949-1.961-1.961a.628.628,0,0,1,0-.9.642.642,0,0,1,.909,0l1.949,1.961,1.961-1.949a.634.634,0,0,1,.9.9l-1.949,1.961Z" transform="translate(-70.525 -107.725)" fill="#231f20"/>
      </g>
      <g id="Grupo_1109126" data-name="Grupo 1109126" transform="translate(0.985 2)">
        <path id="Trazado_901136" data-name="Trazado 901136" d="M50.613,2C44.048,1.988,38.738,7.2,39.3,13.336a15.371,15.371,0,0,0-16.251.837C18.661,3.3,1.274,5.814.987,17.725c-.143,7.342,8.418,12.532,15.45,9.782A15.235,15.235,0,0,0,21.16,37.958a11.477,11.477,0,0,1,3.468,8.251v2.463A2.812,2.812,0,0,0,23.4,53.527a2.8,2.8,0,0,0,1.734,4.9h1.423a4.917,4.917,0,0,0,4.867,4.281,5.048,5.048,0,0,0,5.716-4.281h1.4a2.793,2.793,0,0,0,1.734-4.9,2.814,2.814,0,0,0-1.232-4.855V46.209a11.819,11.819,0,0,1,3.623-8.418A15.361,15.361,0,0,0,46.547,22.3c7.019,2.714,15.557-2.463,15.414-9.782C61.973,6.711,56.879,2,50.613,2ZM16.975,25.916c-6.326,3.193-14.816-1.244-14.72-8.191,0-5.094,4.52-9.232,10.081-9.232,5.441-.012,10.081,4.018,10.093,9.232a8.746,8.746,0,0,1-2.152,5.692.668.668,0,0,0-.132.61l1.208,3.8-3.731-1.818a.6.6,0,0,0-.646-.1ZM34.828,60.367a4.132,4.132,0,0,1-3.42,1.064,3.636,3.636,0,0,1-3.575-3h8A3.537,3.537,0,0,1,34.828,60.367Zm5.13-9.052a1.443,1.443,0,0,1-1.423,1.578.634.634,0,0,0,0,1.268,1.5,1.5,0,0,1,0,3H25.118A1.426,1.426,0,0,1,23.7,55.739a1.443,1.443,0,0,1,1.423-1.578.634.634,0,0,0,0-1.268,1.5,1.5,0,0,1,0-3h13.4a1.437,1.437,0,0,1,1.435,1.423ZM29.686,48.624l-1.65-7.366a8.813,8.813,0,0,0,3.157-1.291v8.658Zm2.786,0V39.99a8.138,8.138,0,0,0,3.145,1.28l-1.638,7.342H32.472Zm9.3-11.743a13.055,13.055,0,0,0-4.006,9.327v2.416H35.283L37.519,38.6a.631.631,0,1,0-1.232-.275l-.383,1.71a7.633,7.633,0,0,1-3.432-1.6v-.813a.638.638,0,0,0-.634-.634.63.63,0,0,0-.634.634v.8A8.025,8.025,0,0,1,27.761,40l-.371-1.674a.639.639,0,0,0-.753-.478.621.621,0,0,0-.478.753l2.236,10.021H25.907V46.209a12.79,12.79,0,0,0-3.85-9.172,13.961,13.961,0,0,1-4.341-9.578l4.436,2.164a.959.959,0,0,0,.251.06.639.639,0,0,0,.634-.825l-1.543-4.891a9.855,9.855,0,0,0,1.973-8.514A14.132,14.132,0,0,1,39.6,14.986a10.536,10.536,0,0,0,1.291,2.906,6.581,6.581,0,0,1,.622.849l-1.555,4.891a.634.634,0,0,0,.574.825c1.614-.526,3.133-1.519,4.7-2.212a14.192,14.192,0,0,1-3.456,14.637Zm8.837-15.151A10.677,10.677,0,0,1,46,20.7a.74.74,0,0,0-.717.1c-1.232.6-2.451,1.208-3.683,1.806L42.8,18.8a.625.625,0,0,0-.12-.61c-5.3-6.1-.167-15.031,7.928-14.912,13.369.5,13.381,17.949,0,18.451Z" transform="translate(-0.985 -2)" fill="#231f20"/>
      </g>
      <g id="Grupo_1109127" data-name="Grupo 1109127" transform="translate(23.69 49.892)">
        <path id="Trazado_901137" data-name="Trazado 901137" d="M205.066,406.135a.638.638,0,0,0,.634.634,1.5,1.5,0,0,1,0,3H192.283a1.5,1.5,0,0,1,0-3,.634.634,0,0,0,0-1.268,1.443,1.443,0,0,1-1.423-1.578,1.426,1.426,0,0,1,1.423-1.423H205.7a1.5,1.5,0,0,1,0,3A.638.638,0,0,0,205.066,406.135Z" transform="translate(-190.854 -402.5)" fill="#5b7882"/>
      </g>
      <g id="Grupo_1109128" data-name="Grupo 1109128" transform="translate(27.833 58.442)">
        <path id="Trazado_901138" data-name="Trazado 901138" d="M233.5,474a3.651,3.651,0,0,1-3.575,3h-.849a3.636,3.636,0,0,1-3.575-3Z" transform="translate(-225.5 -474)" fill="#5b7882"/>
      </g>
      <g id="Grupo_1109129" data-name="Grupo 1109129" transform="translate(17.728 12.685)">
        <path id="Trazado_901139" data-name="Trazado 901139" d="M169.257,105.492a14.073,14.073,0,0,1-4.2,10.057,13.055,13.055,0,0,0-4.006,9.327v2.416h-2.487L160.8,117.27a.631.631,0,0,0-1.232-.275l-.383,1.71a7.633,7.633,0,0,1-3.432-1.6v-.813a.638.638,0,0,0-.634-.634.63.63,0,0,0-.634.634v.8a8.025,8.025,0,0,1-3.444,1.578L150.674,117a.639.639,0,0,0-.753-.478.621.621,0,0,0-.478.753l2.236,10.021h-2.487v-2.416a12.79,12.79,0,0,0-3.85-9.172A13.961,13.961,0,0,1,141,106.126l4.436,2.164a.959.959,0,0,0,.251.06.639.639,0,0,0,.634-.825l-1.543-4.891a9.855,9.855,0,0,0,1.973-8.514,14.132,14.132,0,0,1,16.131-.466,10.536,10.536,0,0,0,1.291,2.906,6.58,6.58,0,0,1,.622.849l-1.555,4.891a.634.634,0,0,0,.574.825c1.614-.526,3.133-1.519,4.7-2.212a14.753,14.753,0,0,1,.741,4.58Z" transform="translate(-141 -91.352)" fill="#fae286"/>
      </g>
      <g id="Grupo_1109130" data-name="Grupo 1109130" transform="translate(28.036 39.967)">
        <path id="Trazado_901140" data-name="Trazado 901140" d="M230.357,319.5v8.658H228.85l-1.65-7.366A8.9,8.9,0,0,0,230.357,319.5Z" transform="translate(-227.2 -319.5)" fill="#fae286"/>
      </g>
      <g id="Grupo_1109131" data-name="Grupo 1109131" transform="translate(32.472 39.99)">
        <path id="Trazado_901141" data-name="Trazado 901141" d="M267.445,320.991l-1.638,7.342H264.3V319.7A8.349,8.349,0,0,0,267.445,320.991Z" transform="translate(-264.3 -319.7)" fill="#fae286"/>
      </g>
      <g id="Grupo_1109132" data-name="Grupo 1109132" transform="translate(2.265 8.492)">
        <path id="Trazado_901142" data-name="Trazado 901142" d="M29.713,71.213c5.345-6.23.048-15.055-7.94-14.924-5.56,0-10.081,4.137-10.081,9.232-.108,6.852,8.215,11.324,14.529,8.275a.718.718,0,0,1,.837.012l3.731,1.818-1.208-3.8a.63.63,0,0,1,.132-.61Zm-7.94.658a6.392,6.392,0,1,1,6.4-6.386,6.4,6.4,0,0,1-6.4,6.386Z" transform="translate(-11.691 -56.288)" fill="#eff5f6"/>
      </g>
      <g id="Grupo_1109133" data-name="Grupo 1109133" transform="translate(7.229 12.571)">
        <path id="Trazado_901143" data-name="Trazado 901143" d="M58.318,90.4a5.118,5.118,0,1,0,5.118,5.118A5.124,5.124,0,0,0,58.318,90.4Zm2.858,7.067a.639.639,0,0,1-.9.909l-1.961-1.961-1.949,1.961a.653.653,0,0,1-.909,0,.642.642,0,0,1,0-.909l1.961-1.949L55.46,93.557a.628.628,0,0,1,0-.9.642.642,0,0,1,.909,0l1.949,1.961,1.961-1.949a.634.634,0,0,1,.9.9L59.227,95.53Z" transform="translate(-53.2 -90.4)" fill="#ea565b"/>
      </g>
      <g id="Grupo_1109134" data-name="Grupo 1109134" transform="translate(40.518 3.279)">
        <path id="Trazado_901144" data-name="Trazado 901144" d="M341.675,12.7c-6.3-.036-11.264,5.417-9.853,11.217a8.723,8.723,0,0,0,1.925,3.7.625.625,0,0,1,.12.61l-1.208,3.8c1.232-.6,2.451-1.208,3.683-1.806a.74.74,0,0,1,.717-.1,10.678,10.678,0,0,0,4.616,1.028C355.056,30.648,355.044,13.2,341.675,12.7Zm0,15.689a6.392,6.392,0,1,1,6.4-6.4A6.395,6.395,0,0,1,341.675,28.388Z" transform="translate(-331.58 -12.699)" fill="#eff5f6"/>
      </g>
      <g id="Grupo_1109135" data-name="Grupo 1109135" transform="translate(45.495 7.453)">
        <path id="Trazado_901145" data-name="Trazado 901145" d="M378.318,47.6a5.118,5.118,0,1,0,5.118,5.118A5.124,5.124,0,0,0,378.318,47.6Zm-.526,7.725a.628.628,0,0,1-.9,0l-2.368-2.368a.639.639,0,0,1,.9-.909l1.925,1.925,3.874-3.874a.639.639,0,0,1,.909.9Z" transform="translate(-373.2 -47.6)" fill="#ea565b"/>
      </g>
    </g>
  </g>
</svg>
