<svg xmlns="http://www.w3.org/2000/svg" xmlns:xlink="http://www.w3.org/1999/xlink" width="108.914" height="108.914" viewBox="0 0 108.914 108.914">
  <defs>
    <filter id="Trazado_874925" x="0" y="0" width="108.914" height="108.914" filterUnits="userSpaceOnUse">
      <feOffset dy="3" input="SourceAlpha"/>
      <feGaussianBlur stdDeviation="3" result="blur"/>
      <feFlood flood-opacity="0.161"/>
      <feComposite operator="in" in2="blur"/>
      <feComposite in="SourceGraphic"/>
    </filter>
  </defs>
  <g id="Grupo_1108348" data-name="Grupo 1108348" transform="translate(-818.851 -1958.181)">
    <g transform="matrix(1, 0, 0, 1, 818.85, 1958.18)" filter="url(#Trazado_874925)">
      <g id="Trazado_874925-2" data-name="Trazado 874925" transform="translate(9 6)" fill="#9cc8ff" opacity="0.859">
        <path d="M 45.45676803588867 89.41407012939453 C 39.52198028564453 89.41407012939453 33.76551818847656 88.25206756591797 28.34726715087891 85.96034240722656 C 23.11311721801758 83.74648284912109 18.41204261779785 80.57682800292969 14.37464332580566 76.5394287109375 C 10.33724308013916 72.50202941894531 7.167593002319336 67.80095672607422 4.953730583190918 62.56679534912109 C 2.662005424499512 57.14855575561523 1.500005483627319 51.39208221435547 1.500005483627319 45.45729446411133 C 1.500005483627319 39.52198028564453 2.662005424499512 33.76551818847656 4.953730583190918 28.34726905822754 C 7.167593002319336 23.11310577392578 10.33724308013916 18.41203117370605 14.37464332580566 14.37464332580566 C 18.41204261779785 10.33724403381348 23.11311721801758 7.167593955993652 28.34726715087891 4.953731060028076 C 33.76551818847656 2.662006139755249 39.52198028564453 1.500006198883057 45.45676803588867 1.500006198883057 C 51.39155578613281 1.500006198883057 57.14802932739258 2.662006139755249 62.56626892089844 4.953731060028076 C 67.80043029785156 7.167593955993652 72.50150299072266 10.33724403381348 76.53890228271484 14.37464332580566 C 80.57630920410156 18.41203117370605 83.74595642089844 23.11310577392578 85.95981597900391 28.34726905822754 C 88.25154113769531 33.76551818847656 89.41354370117188 39.52198028564453 89.41354370117188 45.45676803588867 C 89.41354370117188 51.39208221435547 88.25154113769531 57.14855575561523 85.95981597900391 62.56679534912109 C 83.74595642089844 67.80095672607422 80.57630920410156 72.50202941894531 76.53890228271484 76.5394287109375 C 72.50150299072266 80.57682800292969 67.80043029785156 83.74648284912109 62.56626892089844 85.96034240722656 C 57.14802932739258 88.25206756591797 51.39155578613281 89.41407012939453 45.45676803588867 89.41407012939453 Z" stroke="none"/>
        <path d="M 45.45676803588867 3 C 39.72381210327148 3 34.1639404296875 4.12213134765625 28.93159484863281 6.335227966308594 C 23.87622833251953 8.473472595214844 19.33542633056641 11.53517150878906 15.43529510498047 15.435302734375 C 11.53517150878906 19.33543395996094 8.473464965820312 23.87622833251953 6.335227966308594 28.93160247802734 C 4.122123718261719 34.16394424438477 3 39.72381591796875 3 45.4572868347168 C 3 51.19024658203125 4.122123718261719 56.75011825561523 6.335227966308594 61.98246002197266 C 8.473464965820312 67.03782653808594 11.53517150878906 71.57862854003906 15.43529510498047 75.478759765625 C 19.33542633056641 79.37889099121094 23.87622833251953 82.44058990478516 28.93159484863281 84.57883453369141 C 34.1639404296875 86.79193115234375 39.72381210327148 87.9140625 45.45676803588867 87.9140625 C 51.18972396850586 87.9140625 56.74959564208984 86.79193115234375 61.98194122314453 84.57883453369141 C 67.03730773925781 82.44058990478516 71.57810974121094 79.37889099121094 75.47824096679688 75.478759765625 C 79.37837219238281 71.57862854003906 82.44007110595703 67.03782653808594 84.57830810546875 61.98246002197266 C 86.79141235351562 56.75011825561523 87.91353607177734 51.19024658203125 87.91353607177734 45.4567756652832 C 87.91353607177734 39.72381591796875 86.79141235351562 34.16394424438477 84.57830810546875 28.93160247802734 C 82.44007110595703 23.87622833251953 79.37837219238281 19.33543395996094 75.47824096679688 15.435302734375 C 71.57810974121094 11.53517150878906 67.03730773925781 8.473472595214844 61.98194122314453 6.335227966308594 C 56.74959564208984 4.12213134765625 51.18972396850586 3 45.45676803588867 3 M 45.45676803588867 0 C 70.56185150146484 0 90.91353607177734 20.35169219970703 90.91353607177734 45.4567756652832 L 90.91353607177734 45.4572868347168 C 90.91353607177734 70.5623779296875 70.56185150146484 90.9140625 45.45676803588867 90.9140625 C 20.3516845703125 90.9140625 0 70.5623779296875 0 45.4572868347168 L 0 45.4567756652832 C 0 20.35169219970703 20.3516845703125 0 45.45676803588867 0 Z" stroke="none" fill="#fff"/>
      </g>
    </g>
    <g id="stopwatch_7233861" transform="translate(844.851 1981.599)">
      <g id="Grupo_1109140" data-name="Grupo 1109140" transform="translate(0.834 1.416)">
        <path id="Trazado_901146" data-name="Trazado 901146" d="M236.341,8.082h-12.46a3.622,3.622,0,0,0-3.611,3.611h0a3.622,3.622,0,0,0,3.611,3.611h0a2.08,2.08,0,0,1,2.08,2.08v9.133h8.3V17.384a2.08,2.08,0,0,1,2.08-2.08h0a3.622,3.622,0,0,0,3.611-3.611h0A3.622,3.622,0,0,0,236.341,8.082Z" transform="translate(-196.612 -8.082)" fill="#77728d"/>
        <path id="Trazado_901147" data-name="Trazado 901147" d="M229.705,15.3h0a3.622,3.622,0,0,1-3.611-3.611h0a3.622,3.622,0,0,1,3.611-3.611h-5.824a3.622,3.622,0,0,0-3.611,3.611h0a3.622,3.622,0,0,0,3.611,3.611h0a2.08,2.08,0,0,1,2.08,2.08v9.133h5.824V17.384A2.08,2.08,0,0,0,229.705,15.3Z" transform="translate(-196.612 -8.082)" fill="#6a647f"/>
        <circle id="Elipse_11556" data-name="Elipse 11556" cx="21.762" cy="21.762" r="21.762" transform="translate(11.736 11.607)" fill="#948ea3"/>
        <path id="Trazado_901148" data-name="Trazado 901148" d="M132.362,152.129a4.42,4.42,0,0,1,3.356-4.289V120.1a4.418,4.418,0,0,1-2.177-7.293,21.762,21.762,0,0,0,1.271,43.487c.162,0,.323,0,.484-.006A4.419,4.419,0,0,1,132.362,152.129Z" transform="translate(-101.314 -101.165)" fill="#77728d"/>
        <circle id="Elipse_11557" data-name="Elipse 11557" cx="15.666" cy="15.666" r="15.666" transform="translate(17.833 17.703)" fill="#f5f8ff"/>
        <path id="Trazado_901149" data-name="Trazado 901149" d="M176.357,183.2a15.693,15.693,0,0,1,11.849-15.195,15.666,15.666,0,1,0-.843,30.153A15.694,15.694,0,0,1,176.357,183.2Z" transform="translate(-150.049 -149.598)" fill="#deeeff"/>
        <path id="Trazado_901150" data-name="Trazado 901150" d="M17.719,125.328H10.568A3.068,3.068,0,0,0,7.5,128.4h0a3.068,3.068,0,0,0,3.068,3.068h7.152a3.068,3.068,0,0,0,3.068-3.068h0A3.068,3.068,0,0,0,17.719,125.328Z" transform="translate(-7.5 -112.292)" fill="#fce3a0"/>
        <path id="Trazado_901151" data-name="Trazado 901151" d="M282.442,285.322a3.295,3.295,0,1,1,3.295-3.295A3.3,3.3,0,0,1,282.442,285.322Z" transform="translate(-248.943 -248.639)" fill="#ffaaa1"/>
        <path id="Trazado_901152" data-name="Trazado 901152" d="M282.442,285.322a3.295,3.295,0,1,1,3.295-3.295A3.3,3.3,0,0,1,282.442,285.322Z" transform="translate(-248.943 -248.639)" fill="#ffaaa1"/>
        <path id="Trazado_901153" data-name="Trazado 901153" d="M34.142,413.656H10.568A3.068,3.068,0,0,0,7.5,416.724h0a3.068,3.068,0,0,0,3.068,3.068H34.142a3.077,3.077,0,0,0,3.068-3.068h0A3.077,3.077,0,0,0,34.142,413.656Z" transform="translate(-7.5 -368.561)" fill="#fce3a0"/>
        <path id="Trazado_901154" data-name="Trazado 901154" d="M14.369,351.241H9.493A1.993,1.993,0,0,0,7.5,353.234h0a1.993,1.993,0,0,0,1.993,1.993h4.876a2,2,0,0,0,1.993-1.993h0A2,2,0,0,0,14.369,351.241Z" transform="translate(-7.5 -313.086)" fill="#f9d171"/>
        <path id="Trazado_901155" data-name="Trazado 901155" d="M28.582,269.492H10.568A3.068,3.068,0,0,0,7.5,272.56h0a3.068,3.068,0,0,0,3.068,3.068H28.582a3.077,3.077,0,0,0,3.068-3.068h0A3.077,3.077,0,0,0,28.582,269.492Z" transform="translate(-7.5 -240.426)" fill="#fce3a0"/>
        <path id="Trazado_901156" data-name="Trazado 901156" d="M34.729,207.076H9.493A1.993,1.993,0,0,0,7.5,209.069h0a1.993,1.993,0,0,0,1.993,1.993H34.775a2,2,0,0,0,1.983-2.189A2.023,2.023,0,0,0,34.729,207.076Z" transform="translate(-7.5 -184.95)" fill="#fce3a0"/>
        <g id="Grupo_1109136" data-name="Grupo 1109136" transform="translate(0 13.036)">
          <path id="Trazado_901157" data-name="Trazado 901157" d="M14.638,128.451a3.52,3.52,0,0,1,1.9-3.123H10.568A3.068,3.068,0,0,0,7.5,128.4h0a3.068,3.068,0,0,0,3.068,3.068h5.768A3.519,3.519,0,0,1,14.638,128.451Z" transform="translate(-7.5 -125.328)" fill="#f9d171"/>
        </g>
        <g id="Grupo_1109137" data-name="Grupo 1109137" transform="translate(0 22.126)">
          <path id="Trazado_901158" data-name="Trazado 901158" d="M14.638,209.07a2.618,2.618,0,0,1,.918-1.993H9.493A1.993,1.993,0,0,0,7.5,209.07h0a1.993,1.993,0,0,0,1.993,1.993h6.063A2.618,2.618,0,0,1,14.638,209.07Z" transform="translate(-7.5 -207.077)" fill="#f9d171"/>
        </g>
        <g id="Grupo_1109138" data-name="Grupo 1109138" transform="translate(0 29.066)">
          <path id="Trazado_901159" data-name="Trazado 901159" d="M14.638,272.56a3.519,3.519,0,0,1,1.793-3.068H10.568A3.068,3.068,0,0,0,7.5,272.56h0a3.068,3.068,0,0,0,3.068,3.068h5.864A3.519,3.519,0,0,1,14.638,272.56Z" transform="translate(-7.5 -269.492)" fill="#f9d171"/>
        </g>
        <g id="Grupo_1109139" data-name="Grupo 1109139" transform="translate(0 45.095)">
          <path id="Trazado_901160" data-name="Trazado 901160" d="M14.638,416.724a3.519,3.519,0,0,1,1.793-3.068H10.568A3.068,3.068,0,0,0,7.5,416.724h0a3.068,3.068,0,0,0,3.068,3.068h5.864A3.519,3.519,0,0,1,14.638,416.724Z" transform="translate(-7.5 -413.656)" fill="#f9d171"/>
        </g>
      </g>
      <g id="Grupo_1109142" data-name="Grupo 1109142" transform="translate(0 0.582)">
        <path id="Línea_581" data-name="Línea 581" d="M-6.666,2.036A.834.834,0,0,1-7.5,1.2V-6.666A.834.834,0,0,1-6.666-7.5a.834.834,0,0,1,.834.834V1.2A.834.834,0,0,1-6.666,2.036Z" transform="translate(40.998 29.725)"/>
        <path id="Trazado_901161" data-name="Trazado 901161" d="M275.776,279.489a4.132,4.132,0,1,1,2.918-1.21A4.133,4.133,0,0,1,275.776,279.489Zm0-6.59a2.459,2.459,0,1,0,2.461,2.461A2.464,2.464,0,0,0,275.776,272.9Z" transform="translate(-241.443 -241.139)"/>
        <path id="Trazado_901162" data-name="Trazado 901162" d="M227.6,13.953a.834.834,0,0,1-.834-.834v-2.4A2.917,2.917,0,0,1,229.675,7.8a2.777,2.777,0,0,0,0-5.554h-12.46a2.777,2.777,0,0,0,0,5.554,2.917,2.917,0,0,1,2.914,2.914v2.4a.834.834,0,1,1-1.668,0v-2.4a1.248,1.248,0,0,0-1.246-1.246,4.445,4.445,0,0,1,0-8.89h12.46a4.445,4.445,0,1,1,0,8.89,1.248,1.248,0,0,0-1.246,1.246v2.4A.834.834,0,0,1,227.6,13.953Z" transform="translate(-189.112 -0.582)"/>
        <path id="Trazado_901163" data-name="Trazado 901163" d="M110.478,241.14a.835.835,0,0,1-.817-1,22.528,22.528,0,0,1,.758-2.755.834.834,0,0,1,1.577.544,20.854,20.854,0,0,0-.7,2.55A.834.834,0,0,1,110.478,241.14Z" transform="translate(-97.452 -210.553)"/>
        <path id="Trazado_901164" data-name="Trazado 901164" d="M110.462,330a.833.833,0,0,1-.706-.389,22.606,22.606,0,0,1-3.381-9.964.834.834,0,1,1,1.661-.152,20.931,20.931,0,0,0,3.13,9.225.834.834,0,0,1-.7,1.279Z" transform="translate(-94.544 -283.362)"/>
        <path id="Trazado_901165" data-name="Trazado 901165" d="M153.994,150.162a22.467,22.467,0,0,1-12.832-3.995.834.834,0,0,1,.948-1.372,20.928,20.928,0,1,0-5.935-28.211.834.834,0,1,1-1.419-.876,22.6,22.6,0,1,1,19.238,34.455Z" transform="translate(-119.661 -93.362)"/>
        <path id="Trazado_901166" data-name="Trazado 901166" d="M3.9,117.828h7.152a3.9,3.9,0,0,1,0,7.8H3.9a3.9,3.9,0,0,1,0-7.8Zm7.152,6.135a2.234,2.234,0,1,0,0-4.468H3.9a2.234,2.234,0,1,0,0,4.468Z" transform="translate(0 -104.792)"/>
        <path id="Trazado_901167" data-name="Trazado 901167" d="M167.009,240.1a.835.835,0,0,1-.8-1.071A16.442,16.442,0,0,1,167.4,236.1a.834.834,0,1,1,1.478.772,14.769,14.769,0,0,0-1.067,2.631A.834.834,0,0,1,167.009,240.1Z" transform="translate(-147.697 -209.513)"/>
        <path id="Trazado_901168" data-name="Trazado 901168" d="M167.159,329.023a.831.831,0,0,1-.566-.222,16.508,16.508,0,0,1-5.177-10.106.834.834,0,1,1,1.656-.2,14.838,14.838,0,0,0,4.655,9.083.834.834,0,0,1-.567,1.446Z" transform="translate(-143.462 -282.493)"/>
        <path id="Trazado_901169" data-name="Trazado 901169" d="M272.608,241.845a16.522,16.522,0,0,1-3.887-.462.834.834,0,1,1,.393-1.621,14.839,14.839,0,0,0,18.326-14.416,14.679,14.679,0,0,0-3.067-9.022.834.834,0,0,1,1.322-1.017,16.333,16.333,0,0,1,3.413,10.039A16.518,16.518,0,0,1,272.608,241.845Z" transform="translate(-238.275 -191.142)"/>
        <path id="Trazado_901170" data-name="Trazado 901170" d="M205.152,165.777a.834.834,0,0,1-.574-1.439,16.472,16.472,0,0,1,21.9-.716.834.834,0,0,1-1.068,1.281,14.8,14.8,0,0,0-19.688.645A.831.831,0,0,1,205.152,165.777Z" transform="translate(-181.6 -142.097)"/>
        <path id="Trazado_901171" data-name="Trazado 901171" d="M3.9,406.156H27.476a3.9,3.9,0,0,1,0,7.8H3.9a3.9,3.9,0,0,1,0-7.8Zm23.574,6.135a2.234,2.234,0,1,0,0-4.468H3.9a2.234,2.234,0,1,0,0,4.468Z" transform="translate(0 -361.061)"/>
        <path id="Trazado_901172" data-name="Trazado 901172" d="M2.827,343.741H7.7a2.827,2.827,0,1,1,0,5.654H2.827a2.827,2.827,0,1,1,0-5.654ZM7.7,347.727a1.159,1.159,0,0,0,0-2.318H2.827a1.159,1.159,0,0,0,0,2.318Z" transform="translate(0 -305.586)"/>
        <path id="Trazado_901173" data-name="Trazado 901173" d="M21.916,269.8H9.21a.834.834,0,1,1,0-1.668H21.916a2.234,2.234,0,0,0,0-4.468H3.9a2.234,2.234,0,0,0,0,4.468H5.763a.834.834,0,1,1,0,1.668H3.9a3.9,3.9,0,1,1,0-7.8H21.916a3.9,3.9,0,1,1,0,7.8Z" transform="translate(0 -232.926)"/>
        <path id="Trazado_901174" data-name="Trazado 901174" d="M2.827,199.576H28.063a2.827,2.827,0,1,1,.046,5.654H2.827a2.827,2.827,0,0,1,0-5.654Zm25.282,3.986a1.162,1.162,0,0,0,.857-.383,1.147,1.147,0,0,0,.3-.892,1.193,1.193,0,0,0-1.2-1.044H2.827a1.159,1.159,0,0,0,0,2.318Z" transform="translate(0 -177.45)"/>
        <g id="Grupo_1109141" data-name="Grupo 1109141" transform="translate(26.555 39.815)">
          <path id="Línea_582" data-name="Línea 582" d="M-6.666-4.5A.834.834,0,0,1-7.5-5.332V-6.666A.834.834,0,0,1-6.666-7.5a.834.834,0,0,1,.834.834v1.334A.834.834,0,0,1-6.666-4.5Z" transform="translate(7.5 7.5)"/>
          <path id="Línea_583" data-name="Línea 583" d="M-6.666-4.5A.834.834,0,0,1-7.5-5.332V-6.666A.834.834,0,0,1-6.666-7.5a.834.834,0,0,1,.834.834v1.334A.834.834,0,0,1-6.666-4.5Z" transform="translate(21.387 7.5)"/>
          <path id="Trazado_901175" data-name="Trazado 901175" d="M287.478,372.809a3.262,3.262,0,0,1-2.459-1.12.834.834,0,1,1,1.257-1.1,1.592,1.592,0,0,0,2.4,0,.834.834,0,1,1,1.257,1.1A3.262,3.262,0,0,1,287.478,372.809Z" transform="translate(-279.701 -369.012)"/>
        </g>
      </g>
    </g>
  </g>
</svg>
