<svg xmlns="http://www.w3.org/2000/svg" xmlns:xlink="http://www.w3.org/1999/xlink" width="108.914" height="108.914" viewBox="0 0 108.914 108.914">
  <defs>
    <filter id="Trazado_874925" x="0" y="0" width="108.914" height="108.914" filterUnits="userSpaceOnUse">
      <feOffset dy="3" input="SourceAlpha"/>
      <feGaussianBlur stdDeviation="3" result="blur"/>
      <feFlood flood-opacity="0.161"/>
      <feComposite operator="in" in2="blur"/>
      <feComposite in="SourceGraphic"/>
    </filter>
  </defs>
  <g id="Grupo_1108352" data-name="Grupo 1108352" transform="translate(-818.384 -1958.636)">
    <g transform="matrix(1, 0, 0, 1, 818.38, 1958.64)" filter="url(#Trazado_874925)">
      <g id="Trazado_874925-2" data-name="Trazado 874925" transform="translate(9 6)" fill="#9cc8ff" opacity="0.859">
        <path d="M 45.45676803588867 89.41407012939453 C 39.52198028564453 89.41407012939453 33.76551818847656 88.25206756591797 28.34726715087891 85.96034240722656 C 23.11311721801758 83.74648284912109 18.41204261779785 80.57682800292969 14.37464332580566 76.5394287109375 C 10.33724308013916 72.50202941894531 7.167593002319336 67.80095672607422 4.953730583190918 62.56679534912109 C 2.662005424499512 57.14855575561523 1.500005483627319 51.39208221435547 1.500005483627319 45.45729446411133 C 1.500005483627319 39.52198028564453 2.662005424499512 33.76551818847656 4.953730583190918 28.34726905822754 C 7.167593002319336 23.11310577392578 10.33724308013916 18.41203117370605 14.37464332580566 14.37464332580566 C 18.41204261779785 10.33724403381348 23.11311721801758 7.167593955993652 28.34726715087891 4.953731060028076 C 33.76551818847656 2.662006139755249 39.52198028564453 1.500006198883057 45.45676803588867 1.500006198883057 C 51.39155578613281 1.500006198883057 57.14802932739258 2.662006139755249 62.56626892089844 4.953731060028076 C 67.80043029785156 7.167593955993652 72.50150299072266 10.33724403381348 76.53890228271484 14.37464332580566 C 80.57630920410156 18.41203117370605 83.74595642089844 23.11310577392578 85.95981597900391 28.34726905822754 C 88.25154113769531 33.76551818847656 89.41354370117188 39.52198028564453 89.41354370117188 45.45676803588867 C 89.41354370117188 51.39208221435547 88.25154113769531 57.14855575561523 85.95981597900391 62.56679534912109 C 83.74595642089844 67.80095672607422 80.57630920410156 72.50202941894531 76.53890228271484 76.5394287109375 C 72.50150299072266 80.57682800292969 67.80043029785156 83.74648284912109 62.56626892089844 85.96034240722656 C 57.14802932739258 88.25206756591797 51.39155578613281 89.41407012939453 45.45676803588867 89.41407012939453 Z" stroke="none"/>
        <path d="M 45.45676803588867 3 C 39.72381210327148 3 34.1639404296875 4.12213134765625 28.93159484863281 6.335227966308594 C 23.87622833251953 8.473472595214844 19.33542633056641 11.53517150878906 15.43529510498047 15.435302734375 C 11.53517150878906 19.33543395996094 8.473464965820312 23.87622833251953 6.335227966308594 28.93160247802734 C 4.122123718261719 34.16394424438477 3 39.72381591796875 3 45.4572868347168 C 3 51.19024658203125 4.122123718261719 56.75011825561523 6.335227966308594 61.98246002197266 C 8.473464965820312 67.03782653808594 11.53517150878906 71.57862854003906 15.43529510498047 75.478759765625 C 19.33542633056641 79.37889099121094 23.87622833251953 82.44058990478516 28.93159484863281 84.57883453369141 C 34.1639404296875 86.79193115234375 39.72381210327148 87.9140625 45.45676803588867 87.9140625 C 51.18972396850586 87.9140625 56.74959564208984 86.79193115234375 61.98194122314453 84.57883453369141 C 67.03730773925781 82.44058990478516 71.57810974121094 79.37889099121094 75.47824096679688 75.478759765625 C 79.37837219238281 71.57862854003906 82.44007110595703 67.03782653808594 84.57830810546875 61.98246002197266 C 86.79141235351562 56.75011825561523 87.91353607177734 51.19024658203125 87.91353607177734 45.4567756652832 C 87.91353607177734 39.72381591796875 86.79141235351562 34.16394424438477 84.57830810546875 28.93160247802734 C 82.44007110595703 23.87622833251953 79.37837219238281 19.33543395996094 75.47824096679688 15.435302734375 C 71.57810974121094 11.53517150878906 67.03730773925781 8.473472595214844 61.98194122314453 6.335227966308594 C 56.74959564208984 4.12213134765625 51.18972396850586 3 45.45676803588867 3 M 45.45676803588867 0 C 70.56185150146484 0 90.91353607177734 20.35169219970703 90.91353607177734 45.4567756652832 L 90.91353607177734 45.4572868347168 C 90.91353607177734 70.5623779296875 70.56185150146484 90.9140625 45.45676803588867 90.9140625 C 20.3516845703125 90.9140625 0 70.5623779296875 0 45.4572868347168 L 0 45.4567756652832 C 0 20.35169219970703 20.3516845703125 0 45.45676803588867 0 Z" stroke="none" fill="#fff"/>
      </g>
    </g>
    <g id="choice_4295993" transform="translate(847.336 1971.013)">
      <g id="Grupo_1109147" data-name="Grupo 1109147" transform="translate(0.748 15.828)">
        <path id="Trazado_901161" data-name="Trazado 901161" d="M80.127,55.769H95.611V44.689a6.931,6.931,0,0,1,6.931-6.932h.158l0-.929a1.177,1.177,0,0,1,1.763-1.024l5.1,2.925a1.178,1.178,0,0,1,.006,2.04l-5.081,2.95a1.178,1.178,0,0,1-1.769-1.015l0-.957h-.155A2.955,2.955,0,0,0,99.6,44.7V55.769h3.1l0-.929a1.177,1.177,0,0,1,1.763-1.024l5.1,2.925a1.178,1.178,0,0,1,.006,2.04l-5.081,2.95a1.178,1.178,0,0,1-1.769-1.015l0-.957H99.6v11.09a2.955,2.955,0,0,0,2.954,2.955h.155l0-.957a1.178,1.178,0,0,1,1.769-1.015l5.081,2.95a1.178,1.178,0,0,1-.006,2.04l-5.1,2.925a1.177,1.177,0,0,1-1.763-1.024l0-.929h-.158a6.931,6.931,0,0,1-6.931-6.932v-11.1H82.825" transform="translate(-72.883 -34.343)" fill="#4a80aa"/>
        <g id="Grupo_1109143" data-name="Grupo 1109143" transform="translate(39.422)">
          <circle id="Elipse_11558" data-name="Elipse 11558" cx="5.045" cy="5.045" r="5.045" transform="translate(0 0)" fill="#a2e19f"/>
          <path id="Trazado_901162" data-name="Trazado 901162" d="M409.464,32.388a5.045,5.045,0,1,1,0-9.526,5.046,5.046,0,0,0,0,9.526Z" transform="translate(-402.753 -22.58)" fill="#97cf92"/>
        </g>
        <g id="Grupo_1109144" data-name="Grupo 1109144" transform="translate(39.422 36.413)">
          <circle id="Elipse_11559" data-name="Elipse 11559" cx="5.045" cy="5.045" r="5.045" transform="translate(0 0)" fill="#9dc6fb"/>
          <path id="Trazado_901163" data-name="Trazado 901163" d="M409.464,397.475a5.045,5.045,0,1,1,0-9.526,5.046,5.046,0,0,0,0,9.526Z" transform="translate(-402.753 -387.667)" fill="#80b4fb"/>
        </g>
        <g id="Grupo_1109145" data-name="Grupo 1109145" transform="translate(39.422 18.206)">
          <circle id="Elipse_11560" data-name="Elipse 11560" cx="5.045" cy="5.045" r="5.045" transform="translate(0 0.001)" fill="#e28086"/>
          <path id="Trazado_901164" data-name="Trazado 901164" d="M409.464,214.931a5.045,5.045,0,1,1,0-9.526,5.046,5.046,0,0,0,0,9.526Z" transform="translate(-402.753 -205.123)" fill="#dd636e"/>
        </g>
        <g id="Grupo_1109146" data-name="Grupo 1109146" transform="translate(0 11.146)">
          <path id="Trazado_901165" data-name="Trazado 901165" d="M24.3,143.633v7.4a2.829,2.829,0,0,1-2.829,2.829H10.328A2.829,2.829,0,0,1,7.5,151.035V137.164a2.829,2.829,0,0,1,2.829-2.829H15a3.536,3.536,0,0,1,2.5,1.036l5.762,5.762A3.536,3.536,0,0,1,24.3,143.633Z" transform="translate(-7.499 -134.335)" fill="#f9f6f9"/>
          <path id="Trazado_901166" data-name="Trazado 901166" d="M86.53,143.634v.6a2.069,2.069,0,0,0-2.069-2.069H81.525A2.829,2.829,0,0,1,78.7,139.34V136.4a2.069,2.069,0,0,0-2.069-2.069h.6a3.539,3.539,0,0,1,2.5,1.036l5.762,5.762A3.539,3.539,0,0,1,86.53,143.634Z" transform="translate(-69.732 -134.335)" fill="#dddaec"/>
        </g>
      </g>
      <g id="Grupo_1109148" data-name="Grupo 1109148" transform="translate(0 15.08)">
        <path id="Trazado_901167" data-name="Trazado 901167" d="M29.829,35.806v.131A1.926,1.926,0,0,0,32.722,37.6L37.8,34.647a1.926,1.926,0,0,0-.01-3.335l-5.1-2.925a1.925,1.925,0,0,0-2.884,1.674v.2a7.689,7.689,0,0,0-7.088,7.657V48.252H18.293V48.02a4.327,4.327,0,0,0-.082-.843,4.253,4.253,0,0,0-1.172-2.187l-5.763-5.762a4.337,4.337,0,0,0-.6-.5,4.252,4.252,0,0,0-2.426-.754H3.577A3.581,3.581,0,0,0,0,41.55V55.422A3.581,3.581,0,0,0,3.577,59h.265a.748.748,0,1,0,0-1.5H3.577A2.083,2.083,0,0,1,1.5,55.422V41.55a2.083,2.083,0,0,1,2.081-2.082H7.643A1.322,1.322,0,0,1,8.963,40.79v2.936A3.581,3.581,0,0,0,12.54,47.3h2.936A1.322,1.322,0,0,1,16.8,48.618v6.8A2.083,2.083,0,0,1,14.716,57.5h-7.9a.748.748,0,1,0,0,1.5h7.9a3.581,3.581,0,0,0,3.577-3.577V53.738h4.434V64.093a7.689,7.689,0,0,0,7.088,7.657v.2A1.921,1.921,0,0,0,32.7,73.626L37.793,70.7a1.926,1.926,0,0,0,.01-3.336l-5.08-2.95a1.925,1.925,0,0,0-2.893,1.66v.132a2.211,2.211,0,0,1-1.616-2.127V53.738h1.616v.211a1.926,1.926,0,0,0,2.893,1.661L37.8,52.659a1.926,1.926,0,0,0-.01-3.335L32.7,46.4a1.925,1.925,0,0,0-2.884,1.674v.179h-1.6V37.934a2.211,2.211,0,0,1,1.616-2.127Zm-14.353,10H12.54a2.083,2.083,0,0,1-2.081-2.081V40.79q0-.14-.013-.276l5.307,5.306q-.137-.013-.276-.013Zm11.988,3.942h3.061a.789.789,0,0,0,.111,0h.01a.748.748,0,0,0,.665-.869l0-.807a.429.429,0,0,1,.643-.373l5.1,2.926a.43.43,0,0,1,0,.744l-5.081,2.951a.43.43,0,0,1-.645-.371l0-.957a.748.748,0,0,0-.748-.746h-3.11a.748.748,0,0,0-.748.748V64.08a3.707,3.707,0,0,0,3.7,3.7h.156a.748.748,0,0,0,.748-.746l0-.958a.43.43,0,0,1,.646-.37l5.08,2.95a.43.43,0,0,1,0,.744l-5.1,2.926a.429.429,0,0,1-.643-.374l0-.929a.748.748,0,0,0-.748-.75h-.159a6.19,6.19,0,0,1-6.183-6.184V52.99a.748.748,0,0,0-.748-.748H18.293V49.749h5.182A.748.748,0,0,0,24.223,49V37.921a6.19,6.19,0,0,1,6.183-6.184h.159a.748.748,0,0,0,.748-.75l0-.929a.429.429,0,0,1,.643-.373l5.1,2.926a.43.43,0,0,1,0,.744L31.971,36.3a.429.429,0,0,1-.645-.371l0-.957a.748.748,0,0,0-.748-.746h-.156a3.707,3.707,0,0,0-3.7,3.7V49a.748.748,0,0,0,.748.748Z" transform="translate(0 -26.827)"/>
        <path id="Trazado_901168" data-name="Trazado 901168" d="M401.044,26.667a5.778,5.778,0,0,0,3.045-.864.748.748,0,1,0-.788-1.272,4.287,4.287,0,1,1,1.674-1.918.748.748,0,1,0,1.368.605,5.794,5.794,0,1,0-5.3,3.449Z" transform="translate(-355.828 -15.08)"/>
        <path id="Trazado_901169" data-name="Trazado 901169" d="M401.046,380.172a5.793,5.793,0,1,0,5.793,5.793,5.8,5.8,0,0,0-5.793-5.793Zm0,10.09a4.3,4.3,0,1,1,4.3-4.3,4.3,4.3,0,0,1-4.3,4.3Z" transform="translate(-355.831 -343.758)"/>
        <path id="Trazado_901170" data-name="Trazado 901170" d="M401.046,197.629a5.793,5.793,0,1,0,5.793,5.793,5.8,5.8,0,0,0-5.793-5.793Zm0,10.09a4.3,4.3,0,1,1,4.3-4.3,4.3,4.3,0,0,1-4.3,4.3Z" transform="translate(-355.831 -179.422)"/>
        <path id="Trazado_901171" data-name="Trazado 901171" d="M40.619,233.241h8.844a.748.748,0,1,0,0-1.5H40.619a.748.748,0,1,0,0,1.5Z" transform="translate(-35.894 -210.135)"/>
        <path id="Trazado_901172" data-name="Trazado 901172" d="M40.619,262.063h8.844a.748.748,0,1,0,0-1.5H40.619a.748.748,0,1,0,0,1.5Z" transform="translate(-35.894 -236.083)"/>
        <path id="Trazado_901173" data-name="Trazado 901173" d="M40.619,290.884h8.844a.748.748,0,0,0,0-1.5H40.619a.748.748,0,0,0,0,1.5Z" transform="translate(-35.894 -262.029)"/>
      </g>
    </g>
  </g>
</svg>
